<svg width="64" height="64" viewBox="0 0 64 64" fill="none" xmlns="http://www.w3.org/2000/svg">
  <rect width="64" height="64" rx="14" fill="#FFF4E5"/>
  <circle cx="32" cy="32" r="25" fill="#FF6A00"/>
  <circle cx="32" cy="32" r="21" fill="#FFE7BE"/>
  <circle cx="32" cy="32" r="17.5" fill="#FF8A00"/>
  <path d="M32 14.5V32L44.4 19.6A17.4 17.4 0 0 0 32 14.5Z" fill="#FFB000"/>
  <path d="M44.4 19.6 32 32h17.5A17.4 17.4 0 0 0 44.4 19.6Z" fill="#FF7A00"/>
  <path d="M49.5 32H32l12.4 12.4A17.4 17.4 0 0 0 49.5 32Z" fill="#FFA000"/>
  <path d="M44.4 44.4 32 32v17.5A17.4 17.4 0 0 0 44.4 44.4Z" fill="#FF7200"/>
  <path d="M32 49.5V32L19.6 44.4A17.4 17.4 0 0 0 32 49.5Z" fill="#FFB000"/>
  <path d="M19.6 44.4 32 32H14.5A17.4 17.4 0 0 0 19.6 44.4Z" fill="#FF7A00"/>
  <path d="M14.5 32H32L19.6 19.6A17.4 17.4 0 0 0 14.5 32Z" fill="#FFA000"/>
  <path d="M19.6 19.6 32 32V14.5A17.4 17.4 0 0 0 19.6 19.6Z" fill="#FF7200"/>
  <circle cx="32" cy="32" r="4" fill="#FFEED0"/>
  <path d="M32 14.5v35M14.5 32h35M19.6 19.6l24.8 24.8M44.4 19.6 19.6 44.4" stroke="#FFF4DB" stroke-width="2.4" stroke-linecap="round"/>
  <path d="M22.5 17.7c3.7-2.2 8-3.1 12.3-2.6" stroke="#FFD18A" stroke-width="2.2" stroke-linecap="round"/>
  <path d="M43.2 12.2c3.5-3.8 8.5-4.3 12.2-2.3-1 5.8-5.6 9.5-11.6 9.2-1.6-2.2-1.6-4.6-.6-6.9Z" fill="#3BAA3E"/>
  <path d="M44 18.5c3.3-2.7 6.9-4.6 10.5-8.1" stroke="#247A2D" stroke-width="2" stroke-linecap="round"/>
  <path d="M19 51.5c8.7 4.8 19.9 3.9 27.6-3.2" stroke="#DB5800" stroke-width="2.4" stroke-linecap="round" opacity=".55"/>
</svg>
