<?xml version="1.0" encoding="UTF-8"?>
<svg xmlns="http://www.w3.org/2000/svg" viewBox="0 0 512 512" width="512" height="512" role="img" aria-label="QR-code">
  <rect width="512" height="512" fill="#fffaf2"/>
  <rect x="24" y="24" width="112" height="112" rx="10" fill="#794230"/>
  <rect x="40" y="40" width="80" height="80" rx="6" fill="#fffaf2"/>
  <rect x="56" y="56" width="48" height="48" rx="5" fill="#794230"/>
  <rect x="376" y="24" width="112" height="112" rx="10" fill="#794230"/>
  <rect x="392" y="40" width="80" height="80" rx="6" fill="#fffaf2"/>
  <rect x="408" y="56" width="48" height="48" rx="5" fill="#794230"/>
  <rect x="24" y="376" width="112" height="112" rx="10" fill="#794230"/>
  <rect x="40" y="392" width="80" height="80" rx="6" fill="#fffaf2"/>
  <rect x="56" y="408" width="48" height="48" rx="5" fill="#794230"/>
  <path d="M 192 39 C 187 34.9, 185 32.4, 185 29.7 C 185 27.1, 187 25.4, 189.4 25.4 C 190.9 25.4, 191.7 26.2, 192 27.3 C 192.3 26.2, 193.1 25.4, 194.6 25.4 C 197 25.4, 199 27.1, 199 29.7 C 199 32.4, 197 34.9, 192 39 Z" fill="#794230"/>
  <path d="M 224 39 C 219 34.9, 217 32.4, 217 29.7 C 217 27.1, 219 25.4, 221.4 25.4 C 222.9 25.4, 223.7 26.2, 224 27.3 C 224.3 26.2, 225.1 25.4, 226.6 25.4 C 229 25.4, 231 27.1, 231 29.7 C 231 32.4, 229 34.9, 224 39 Z" fill="#794230"/>
  <path d="M 256 39 C 251 34.9, 249 32.4, 249 29.7 C 249 27.1, 251 25.4, 253.4 25.4 C 254.9 25.4, 255.7 26.2, 256 27.3 C 256.3 26.2, 257.1 25.4, 258.6 25.4 C 261 25.4, 263 27.1, 263 29.7 C 263 32.4, 261 34.9, 256 39 Z" fill="#794230"/>
  <path d="M 288 39 C 283 34.9, 281 32.4, 281 29.7 C 281 27.1, 283 25.4, 285.4 25.4 C 286.9 25.4, 287.7 26.2, 288 27.3 C 288.3 26.2, 289.1 25.4, 290.6 25.4 C 293 25.4, 295 27.1, 295 29.7 C 295 32.4, 293 34.9, 288 39 Z" fill="#794230"/>
  <path d="M 304 39 C 299 34.9, 297 32.4, 297 29.7 C 297 27.1, 299 25.4, 301.4 25.4 C 302.9 25.4, 303.7 26.2, 304 27.3 C 304.3 26.2, 305.1 25.4, 306.6 25.4 C 309 25.4, 311 27.1, 311 29.7 C 311 32.4, 309 34.9, 304 39 Z" fill="#794230"/>
  <path d="M 320 39 C 315 34.9, 313 32.4, 313 29.7 C 313 27.1, 315 25.4, 317.4 25.4 C 318.9 25.4, 319.7 26.2, 320 27.3 C 320.3 26.2, 321.1 25.4, 322.6 25.4 C 325 25.4, 327 27.1, 327 29.7 C 327 32.4, 325 34.9, 320 39 Z" fill="#794230"/>
  <path d="M 336 39 C 331 34.9, 329 32.4, 329 29.7 C 329 27.1, 331 25.4, 333.4 25.4 C 334.9 25.4, 335.7 26.2, 336 27.3 C 336.3 26.2, 337.1 25.4, 338.6 25.4 C 341 25.4, 343 27.1, 343 29.7 C 343 32.4, 341 34.9, 336 39 Z" fill="#794230"/>
  <path d="M 352 39 C 347 34.9, 345 32.4, 345 29.7 C 345 27.1, 347 25.4, 349.4 25.4 C 350.9 25.4, 351.7 26.2, 352 27.3 C 352.3 26.2, 353.1 25.4, 354.6 25.4 C 357 25.4, 359 27.1, 359 29.7 C 359 32.4, 357 34.9, 352 39 Z" fill="#794230"/>
  <path d="M 160 55 C 155 50.9, 153 48.4, 153 45.7 C 153 43.1, 155 41.4, 157.4 41.4 C 158.9 41.4, 159.7 42.2, 160 43.3 C 160.3 42.2, 161.1 41.4, 162.6 41.4 C 165 41.4, 167 43.1, 167 45.7 C 167 48.4, 165 50.9, 160 55 Z" fill="#794230"/>
  <path d="M 192 55 C 187 50.9, 185 48.4, 185 45.7 C 185 43.1, 187 41.4, 189.4 41.4 C 190.9 41.4, 191.7 42.2, 192 43.3 C 192.3 42.2, 193.1 41.4, 194.6 41.4 C 197 41.4, 199 43.1, 199 45.7 C 199 48.4, 197 50.9, 192 55 Z" fill="#794230"/>
  <path d="M 240 55 C 235 50.9, 233 48.4, 233 45.7 C 233 43.1, 235 41.4, 237.4 41.4 C 238.9 41.4, 239.7 42.2, 240 43.3 C 240.3 42.2, 241.1 41.4, 242.6 41.4 C 245 41.4, 247 43.1, 247 45.7 C 247 48.4, 245 50.9, 240 55 Z" fill="#794230"/>
  <path d="M 256 55 C 251 50.9, 249 48.4, 249 45.7 C 249 43.1, 251 41.4, 253.4 41.4 C 254.9 41.4, 255.7 42.2, 256 43.3 C 256.3 42.2, 257.1 41.4, 258.6 41.4 C 261 41.4, 263 43.1, 263 45.7 C 263 48.4, 261 50.9, 256 55 Z" fill="#794230"/>
  <path d="M 272 55 C 267 50.9, 265 48.4, 265 45.7 C 265 43.1, 267 41.4, 269.4 41.4 C 270.9 41.4, 271.7 42.2, 272 43.3 C 272.3 42.2, 273.1 41.4, 274.6 41.4 C 277 41.4, 279 43.1, 279 45.7 C 279 48.4, 277 50.9, 272 55 Z" fill="#794230"/>
  <path d="M 288 55 C 283 50.9, 281 48.4, 281 45.7 C 281 43.1, 283 41.4, 285.4 41.4 C 286.9 41.4, 287.7 42.2, 288 43.3 C 288.3 42.2, 289.1 41.4, 290.6 41.4 C 293 41.4, 295 43.1, 295 45.7 C 295 48.4, 293 50.9, 288 55 Z" fill="#794230"/>
  <path d="M 304 55 C 299 50.9, 297 48.4, 297 45.7 C 297 43.1, 299 41.4, 301.4 41.4 C 302.9 41.4, 303.7 42.2, 304 43.3 C 304.3 42.2, 305.1 41.4, 306.6 41.4 C 309 41.4, 311 43.1, 311 45.7 C 311 48.4, 309 50.9, 304 55 Z" fill="#794230"/>
  <path d="M 352 55 C 347 50.9, 345 48.4, 345 45.7 C 345 43.1, 347 41.4, 349.4 41.4 C 350.9 41.4, 351.7 42.2, 352 43.3 C 352.3 42.2, 353.1 41.4, 354.6 41.4 C 357 41.4, 359 43.1, 359 45.7 C 359 48.4, 357 50.9, 352 55 Z" fill="#794230"/>
  <path d="M 224 71 C 219 66.9, 217 64.4, 217 61.7 C 217 59.1, 219 57.4, 221.4 57.4 C 222.9 57.4, 223.7 58.2, 224 59.3 C 224.3 58.2, 225.1 57.4, 226.6 57.4 C 229 57.4, 231 59.1, 231 61.7 C 231 64.4, 229 66.9, 224 71 Z" fill="#794230"/>
  <path d="M 256 71 C 251 66.9, 249 64.4, 249 61.7 C 249 59.1, 251 57.4, 253.4 57.4 C 254.9 57.4, 255.7 58.2, 256 59.3 C 256.3 58.2, 257.1 57.4, 258.6 57.4 C 261 57.4, 263 59.1, 263 61.7 C 263 64.4, 261 66.9, 256 71 Z" fill="#794230"/>
  <path d="M 272 71 C 267 66.9, 265 64.4, 265 61.7 C 265 59.1, 267 57.4, 269.4 57.4 C 270.9 57.4, 271.7 58.2, 272 59.3 C 272.3 58.2, 273.1 57.4, 274.6 57.4 C 277 57.4, 279 59.1, 279 61.7 C 279 64.4, 277 66.9, 272 71 Z" fill="#794230"/>
  <path d="M 288 71 C 283 66.9, 281 64.4, 281 61.7 C 281 59.1, 283 57.4, 285.4 57.4 C 286.9 57.4, 287.7 58.2, 288 59.3 C 288.3 58.2, 289.1 57.4, 290.6 57.4 C 293 57.4, 295 59.1, 295 61.7 C 295 64.4, 293 66.9, 288 71 Z" fill="#794230"/>
  <path d="M 160 87 C 155 82.9, 153 80.4, 153 77.7 C 153 75.1, 155 73.4, 157.4 73.4 C 158.9 73.4, 159.7 74.2, 160 75.3 C 160.3 74.2, 161.1 73.4, 162.6 73.4 C 165 73.4, 167 75.1, 167 77.7 C 167 80.4, 165 82.9, 160 87 Z" fill="#794230"/>
  <path d="M 176 87 C 171 82.9, 169 80.4, 169 77.7 C 169 75.1, 171 73.4, 173.4 73.4 C 174.9 73.4, 175.7 74.2, 176 75.3 C 176.3 74.2, 177.1 73.4, 178.6 73.4 C 181 73.4, 183 75.1, 183 77.7 C 183 80.4, 181 82.9, 176 87 Z" fill="#794230"/>
  <path d="M 192 87 C 187 82.9, 185 80.4, 185 77.7 C 185 75.1, 187 73.4, 189.4 73.4 C 190.9 73.4, 191.7 74.2, 192 75.3 C 192.3 74.2, 193.1 73.4, 194.6 73.4 C 197 73.4, 199 75.1, 199 77.7 C 199 80.4, 197 82.9, 192 87 Z" fill="#794230"/>
  <path d="M 224 87 C 219 82.9, 217 80.4, 217 77.7 C 217 75.1, 219 73.4, 221.4 73.4 C 222.9 73.4, 223.7 74.2, 224 75.3 C 224.3 74.2, 225.1 73.4, 226.6 73.4 C 229 73.4, 231 75.1, 231 77.7 C 231 80.4, 229 82.9, 224 87 Z" fill="#794230"/>
  <path d="M 240 87 C 235 82.9, 233 80.4, 233 77.7 C 233 75.1, 235 73.4, 237.4 73.4 C 238.9 73.4, 239.7 74.2, 240 75.3 C 240.3 74.2, 241.1 73.4, 242.6 73.4 C 245 73.4, 247 75.1, 247 77.7 C 247 80.4, 245 82.9, 240 87 Z" fill="#794230"/>
  <path d="M 256 87 C 251 82.9, 249 80.4, 249 77.7 C 249 75.1, 251 73.4, 253.4 73.4 C 254.9 73.4, 255.7 74.2, 256 75.3 C 256.3 74.2, 257.1 73.4, 258.6 73.4 C 261 73.4, 263 75.1, 263 77.7 C 263 80.4, 261 82.9, 256 87 Z" fill="#794230"/>
  <path d="M 304 87 C 299 82.9, 297 80.4, 297 77.7 C 297 75.1, 299 73.4, 301.4 73.4 C 302.9 73.4, 303.7 74.2, 304 75.3 C 304.3 74.2, 305.1 73.4, 306.6 73.4 C 309 73.4, 311 75.1, 311 77.7 C 311 80.4, 309 82.9, 304 87 Z" fill="#794230"/>
  <path d="M 320 87 C 315 82.9, 313 80.4, 313 77.7 C 313 75.1, 315 73.4, 317.4 73.4 C 318.9 73.4, 319.7 74.2, 320 75.3 C 320.3 74.2, 321.1 73.4, 322.6 73.4 C 325 73.4, 327 75.1, 327 77.7 C 327 80.4, 325 82.9, 320 87 Z" fill="#794230"/>
  <path d="M 336 87 C 331 82.9, 329 80.4, 329 77.7 C 329 75.1, 331 73.4, 333.4 73.4 C 334.9 73.4, 335.7 74.2, 336 75.3 C 336.3 74.2, 337.1 73.4, 338.6 73.4 C 341 73.4, 343 75.1, 343 77.7 C 343 80.4, 341 82.9, 336 87 Z" fill="#794230"/>
  <path d="M 176 103 C 171 98.9, 169 96.4, 169 93.7 C 169 91.1, 171 89.4, 173.4 89.4 C 174.9 89.4, 175.7 90.2, 176 91.3 C 176.3 90.2, 177.1 89.4, 178.6 89.4 C 181 89.4, 183 91.1, 183 93.7 C 183 96.4, 181 98.9, 176 103 Z" fill="#794230"/>
  <path d="M 304 103 C 299 98.9, 297 96.4, 297 93.7 C 297 91.1, 299 89.4, 301.4 89.4 C 302.9 89.4, 303.7 90.2, 304 91.3 C 304.3 90.2, 305.1 89.4, 306.6 89.4 C 309 89.4, 311 91.1, 311 93.7 C 311 96.4, 309 98.9, 304 103 Z" fill="#794230"/>
  <path d="M 320 103 C 315 98.9, 313 96.4, 313 93.7 C 313 91.1, 315 89.4, 317.4 89.4 C 318.9 89.4, 319.7 90.2, 320 91.3 C 320.3 90.2, 321.1 89.4, 322.6 89.4 C 325 89.4, 327 91.1, 327 93.7 C 327 96.4, 325 98.9, 320 103 Z" fill="#794230"/>
  <path d="M 336 103 C 331 98.9, 329 96.4, 329 93.7 C 329 91.1, 331 89.4, 333.4 89.4 C 334.9 89.4, 335.7 90.2, 336 91.3 C 336.3 90.2, 337.1 89.4, 338.6 89.4 C 341 89.4, 343 91.1, 343 93.7 C 343 96.4, 341 98.9, 336 103 Z" fill="#794230"/>
  <path d="M 352 103 C 347 98.9, 345 96.4, 345 93.7 C 345 91.1, 347 89.4, 349.4 89.4 C 350.9 89.4, 351.7 90.2, 352 91.3 C 352.3 90.2, 353.1 89.4, 354.6 89.4 C 357 89.4, 359 91.1, 359 93.7 C 359 96.4, 357 98.9, 352 103 Z" fill="#794230"/>
  <path d="M 160 119 C 155 114.9, 153 112.4, 153 109.7 C 153 107.1, 155 105.4, 157.4 105.4 C 158.9 105.4, 159.7 106.2, 160 107.3 C 160.3 106.2, 161.1 105.4, 162.6 105.4 C 165 105.4, 167 107.1, 167 109.7 C 167 112.4, 165 114.9, 160 119 Z" fill="#794230"/>
  <path d="M 176 119 C 171 114.9, 169 112.4, 169 109.7 C 169 107.1, 171 105.4, 173.4 105.4 C 174.9 105.4, 175.7 106.2, 176 107.3 C 176.3 106.2, 177.1 105.4, 178.6 105.4 C 181 105.4, 183 107.1, 183 109.7 C 183 112.4, 181 114.9, 176 119 Z" fill="#794230"/>
  <path d="M 208 119 C 203 114.9, 201 112.4, 201 109.7 C 201 107.1, 203 105.4, 205.4 105.4 C 206.9 105.4, 207.7 106.2, 208 107.3 C 208.3 106.2, 209.1 105.4, 210.6 105.4 C 213 105.4, 215 107.1, 215 109.7 C 215 112.4, 213 114.9, 208 119 Z" fill="#794230"/>
  <path d="M 224 119 C 219 114.9, 217 112.4, 217 109.7 C 217 107.1, 219 105.4, 221.4 105.4 C 222.9 105.4, 223.7 106.2, 224 107.3 C 224.3 106.2, 225.1 105.4, 226.6 105.4 C 229 105.4, 231 107.1, 231 109.7 C 231 112.4, 229 114.9, 224 119 Z" fill="#794230"/>
  <path d="M 256 119 C 251 114.9, 249 112.4, 249 109.7 C 249 107.1, 251 105.4, 253.4 105.4 C 254.9 105.4, 255.7 106.2, 256 107.3 C 256.3 106.2, 257.1 105.4, 258.6 105.4 C 261 105.4, 263 107.1, 263 109.7 C 263 112.4, 261 114.9, 256 119 Z" fill="#794230"/>
  <path d="M 272 119 C 267 114.9, 265 112.4, 265 109.7 C 265 107.1, 267 105.4, 269.4 105.4 C 270.9 105.4, 271.7 106.2, 272 107.3 C 272.3 106.2, 273.1 105.4, 274.6 105.4 C 277 105.4, 279 107.1, 279 109.7 C 279 112.4, 277 114.9, 272 119 Z" fill="#794230"/>
  <path d="M 288 119 C 283 114.9, 281 112.4, 281 109.7 C 281 107.1, 283 105.4, 285.4 105.4 C 286.9 105.4, 287.7 106.2, 288 107.3 C 288.3 106.2, 289.1 105.4, 290.6 105.4 C 293 105.4, 295 107.1, 295 109.7 C 295 112.4, 293 114.9, 288 119 Z" fill="#794230"/>
  <path d="M 304 119 C 299 114.9, 297 112.4, 297 109.7 C 297 107.1, 299 105.4, 301.4 105.4 C 302.9 105.4, 303.7 106.2, 304 107.3 C 304.3 106.2, 305.1 105.4, 306.6 105.4 C 309 105.4, 311 107.1, 311 109.7 C 311 112.4, 309 114.9, 304 119 Z" fill="#794230"/>
  <path d="M 160 135 C 155 130.9, 153 128.4, 153 125.7 C 153 123.1, 155 121.4, 157.4 121.4 C 158.9 121.4, 159.7 122.2, 160 123.3 C 160.3 122.2, 161.1 121.4, 162.6 121.4 C 165 121.4, 167 123.1, 167 125.7 C 167 128.4, 165 130.9, 160 135 Z" fill="#794230"/>
  <path d="M 192 135 C 187 130.9, 185 128.4, 185 125.7 C 185 123.1, 187 121.4, 189.4 121.4 C 190.9 121.4, 191.7 122.2, 192 123.3 C 192.3 122.2, 193.1 121.4, 194.6 121.4 C 197 121.4, 199 123.1, 199 125.7 C 199 128.4, 197 130.9, 192 135 Z" fill="#794230"/>
  <path d="M 224 135 C 219 130.9, 217 128.4, 217 125.7 C 217 123.1, 219 121.4, 221.4 121.4 C 222.9 121.4, 223.7 122.2, 224 123.3 C 224.3 122.2, 225.1 121.4, 226.6 121.4 C 229 121.4, 231 123.1, 231 125.7 C 231 128.4, 229 130.9, 224 135 Z" fill="#794230"/>
  <path d="M 256 135 C 251 130.9, 249 128.4, 249 125.7 C 249 123.1, 251 121.4, 253.4 121.4 C 254.9 121.4, 255.7 122.2, 256 123.3 C 256.3 122.2, 257.1 121.4, 258.6 121.4 C 261 121.4, 263 123.1, 263 125.7 C 263 128.4, 261 130.9, 256 135 Z" fill="#794230"/>
  <path d="M 288 135 C 283 130.9, 281 128.4, 281 125.7 C 281 123.1, 283 121.4, 285.4 121.4 C 286.9 121.4, 287.7 122.2, 288 123.3 C 288.3 122.2, 289.1 121.4, 290.6 121.4 C 293 121.4, 295 123.1, 295 125.7 C 295 128.4, 293 130.9, 288 135 Z" fill="#794230"/>
  <path d="M 320 135 C 315 130.9, 313 128.4, 313 125.7 C 313 123.1, 315 121.4, 317.4 121.4 C 318.9 121.4, 319.7 122.2, 320 123.3 C 320.3 122.2, 321.1 121.4, 322.6 121.4 C 325 121.4, 327 123.1, 327 125.7 C 327 128.4, 325 130.9, 320 135 Z" fill="#794230"/>
  <path d="M 352 135 C 347 130.9, 345 128.4, 345 125.7 C 345 123.1, 347 121.4, 349.4 121.4 C 350.9 121.4, 351.7 122.2, 352 123.3 C 352.3 122.2, 353.1 121.4, 354.6 121.4 C 357 121.4, 359 123.1, 359 125.7 C 359 128.4, 357 130.9, 352 135 Z" fill="#794230"/>
  <path d="M 176 151 C 171 146.9, 169 144.4, 169 141.7 C 169 139.1, 171 137.4, 173.4 137.4 C 174.9 137.4, 175.7 138.2, 176 139.3 C 176.3 138.2, 177.1 137.4, 178.6 137.4 C 181 137.4, 183 139.1, 183 141.7 C 183 144.4, 181 146.9, 176 151 Z" fill="#794230"/>
  <path d="M 192 151 C 187 146.9, 185 144.4, 185 141.7 C 185 139.1, 187 137.4, 189.4 137.4 C 190.9 137.4, 191.7 138.2, 192 139.3 C 192.3 138.2, 193.1 137.4, 194.6 137.4 C 197 137.4, 199 139.1, 199 141.7 C 199 144.4, 197 146.9, 192 151 Z" fill="#794230"/>
  <path d="M 208 151 C 203 146.9, 201 144.4, 201 141.7 C 201 139.1, 203 137.4, 205.4 137.4 C 206.9 137.4, 207.7 138.2, 208 139.3 C 208.3 138.2, 209.1 137.4, 210.6 137.4 C 213 137.4, 215 139.1, 215 141.7 C 215 144.4, 213 146.9, 208 151 Z" fill="#794230"/>
  <path d="M 256 151 C 251 146.9, 249 144.4, 249 141.7 C 249 139.1, 251 137.4, 253.4 137.4 C 254.9 137.4, 255.7 138.2, 256 139.3 C 256.3 138.2, 257.1 137.4, 258.6 137.4 C 261 137.4, 263 139.1, 263 141.7 C 263 144.4, 261 146.9, 256 151 Z" fill="#794230"/>
  <path d="M 288 151 C 283 146.9, 281 144.4, 281 141.7 C 281 139.1, 283 137.4, 285.4 137.4 C 286.9 137.4, 287.7 138.2, 288 139.3 C 288.3 138.2, 289.1 137.4, 290.6 137.4 C 293 137.4, 295 139.1, 295 141.7 C 295 144.4, 293 146.9, 288 151 Z" fill="#794230"/>
  <path d="M 336 151 C 331 146.9, 329 144.4, 329 141.7 C 329 139.1, 331 137.4, 333.4 137.4 C 334.9 137.4, 335.7 138.2, 336 139.3 C 336.3 138.2, 337.1 137.4, 338.6 137.4 C 341 137.4, 343 139.1, 343 141.7 C 343 144.4, 341 146.9, 336 151 Z" fill="#794230"/>
  <path d="M 352 151 C 347 146.9, 345 144.4, 345 141.7 C 345 139.1, 347 137.4, 349.4 137.4 C 350.9 137.4, 351.7 138.2, 352 139.3 C 352.3 138.2, 353.1 137.4, 354.6 137.4 C 357 137.4, 359 139.1, 359 141.7 C 359 144.4, 357 146.9, 352 151 Z" fill="#794230"/>
  <path d="M 32 167 C 27 162.9, 25 160.4, 25 157.7 C 25 155.1, 27 153.4, 29.4 153.4 C 30.9 153.4, 31.7 154.2, 32 155.3 C 32.3 154.2, 33.1 153.4, 34.6 153.4 C 37 153.4, 39 155.1, 39 157.7 C 39 160.4, 37 162.9, 32 167 Z" fill="#794230"/>
  <path d="M 48 167 C 43 162.9, 41 160.4, 41 157.7 C 41 155.1, 43 153.4, 45.4 153.4 C 46.9 153.4, 47.7 154.2, 48 155.3 C 48.3 154.2, 49.1 153.4, 50.6 153.4 C 53 153.4, 55 155.1, 55 157.7 C 55 160.4, 53 162.9, 48 167 Z" fill="#794230"/>
  <path d="M 64 167 C 59 162.9, 57 160.4, 57 157.7 C 57 155.1, 59 153.4, 61.4 153.4 C 62.9 153.4, 63.7 154.2, 64 155.3 C 64.3 154.2, 65.1 153.4, 66.6 153.4 C 69 153.4, 71 155.1, 71 157.7 C 71 160.4, 69 162.9, 64 167 Z" fill="#794230"/>
  <path d="M 80 167 C 75 162.9, 73 160.4, 73 157.7 C 73 155.1, 75 153.4, 77.4 153.4 C 78.9 153.4, 79.7 154.2, 80 155.3 C 80.3 154.2, 81.1 153.4, 82.6 153.4 C 85 153.4, 87 155.1, 87 157.7 C 87 160.4, 85 162.9, 80 167 Z" fill="#794230"/>
  <path d="M 96 167 C 91 162.9, 89 160.4, 89 157.7 C 89 155.1, 91 153.4, 93.4 153.4 C 94.9 153.4, 95.7 154.2, 96 155.3 C 96.3 154.2, 97.1 153.4, 98.6 153.4 C 101 153.4, 103 155.1, 103 157.7 C 103 160.4, 101 162.9, 96 167 Z" fill="#794230"/>
  <path d="M 128 167 C 123 162.9, 121 160.4, 121 157.7 C 121 155.1, 123 153.4, 125.4 153.4 C 126.9 153.4, 127.7 154.2, 128 155.3 C 128.3 154.2, 129.1 153.4, 130.6 153.4 C 133 153.4, 135 155.1, 135 157.7 C 135 160.4, 133 162.9, 128 167 Z" fill="#794230"/>
  <path d="M 144 167 C 139 162.9, 137 160.4, 137 157.7 C 137 155.1, 139 153.4, 141.4 153.4 C 142.9 153.4, 143.7 154.2, 144 155.3 C 144.3 154.2, 145.1 153.4, 146.6 153.4 C 149 153.4, 151 155.1, 151 157.7 C 151 160.4, 149 162.9, 144 167 Z" fill="#794230"/>
  <path d="M 160 167 C 155 162.9, 153 160.4, 153 157.7 C 153 155.1, 155 153.4, 157.4 153.4 C 158.9 153.4, 159.7 154.2, 160 155.3 C 160.3 154.2, 161.1 153.4, 162.6 153.4 C 165 153.4, 167 155.1, 167 157.7 C 167 160.4, 165 162.9, 160 167 Z" fill="#794230"/>
  <path d="M 176 167 C 171 162.9, 169 160.4, 169 157.7 C 169 155.1, 171 153.4, 173.4 153.4 C 174.9 153.4, 175.7 154.2, 176 155.3 C 176.3 154.2, 177.1 153.4, 178.6 153.4 C 181 153.4, 183 155.1, 183 157.7 C 183 160.4, 181 162.9, 176 167 Z" fill="#794230"/>
  <path d="M 208 167 C 203 162.9, 201 160.4, 201 157.7 C 201 155.1, 203 153.4, 205.4 153.4 C 206.9 153.4, 207.7 154.2, 208 155.3 C 208.3 154.2, 209.1 153.4, 210.6 153.4 C 213 153.4, 215 155.1, 215 157.7 C 215 160.4, 213 162.9, 208 167 Z" fill="#794230"/>
  <path d="M 240 167 C 235 162.9, 233 160.4, 233 157.7 C 233 155.1, 235 153.4, 237.4 153.4 C 238.9 153.4, 239.7 154.2, 240 155.3 C 240.3 154.2, 241.1 153.4, 242.6 153.4 C 245 153.4, 247 155.1, 247 157.7 C 247 160.4, 245 162.9, 240 167 Z" fill="#794230"/>
  <path d="M 256 167 C 251 162.9, 249 160.4, 249 157.7 C 249 155.1, 251 153.4, 253.4 153.4 C 254.9 153.4, 255.7 154.2, 256 155.3 C 256.3 154.2, 257.1 153.4, 258.6 153.4 C 261 153.4, 263 155.1, 263 157.7 C 263 160.4, 261 162.9, 256 167 Z" fill="#794230"/>
  <path d="M 272 167 C 267 162.9, 265 160.4, 265 157.7 C 265 155.1, 267 153.4, 269.4 153.4 C 270.9 153.4, 271.7 154.2, 272 155.3 C 272.3 154.2, 273.1 153.4, 274.6 153.4 C 277 153.4, 279 155.1, 279 157.7 C 279 160.4, 277 162.9, 272 167 Z" fill="#794230"/>
  <path d="M 304 167 C 299 162.9, 297 160.4, 297 157.7 C 297 155.1, 299 153.4, 301.4 153.4 C 302.9 153.4, 303.7 154.2, 304 155.3 C 304.3 154.2, 305.1 153.4, 306.6 153.4 C 309 153.4, 311 155.1, 311 157.7 C 311 160.4, 309 162.9, 304 167 Z" fill="#794230"/>
  <path d="M 336 167 C 331 162.9, 329 160.4, 329 157.7 C 329 155.1, 331 153.4, 333.4 153.4 C 334.9 153.4, 335.7 154.2, 336 155.3 C 336.3 154.2, 337.1 153.4, 338.6 153.4 C 341 153.4, 343 155.1, 343 157.7 C 343 160.4, 341 162.9, 336 167 Z" fill="#794230"/>
  <path d="M 368 167 C 363 162.9, 361 160.4, 361 157.7 C 361 155.1, 363 153.4, 365.4 153.4 C 366.9 153.4, 367.7 154.2, 368 155.3 C 368.3 154.2, 369.1 153.4, 370.6 153.4 C 373 153.4, 375 155.1, 375 157.7 C 375 160.4, 373 162.9, 368 167 Z" fill="#794230"/>
  <path d="M 400 167 C 395 162.9, 393 160.4, 393 157.7 C 393 155.1, 395 153.4, 397.4 153.4 C 398.9 153.4, 399.7 154.2, 400 155.3 C 400.3 154.2, 401.1 153.4, 402.6 153.4 C 405 153.4, 407 155.1, 407 157.7 C 407 160.4, 405 162.9, 400 167 Z" fill="#794230"/>
  <path d="M 432 167 C 427 162.9, 425 160.4, 425 157.7 C 425 155.1, 427 153.4, 429.4 153.4 C 430.9 153.4, 431.7 154.2, 432 155.3 C 432.3 154.2, 433.1 153.4, 434.6 153.4 C 437 153.4, 439 155.1, 439 157.7 C 439 160.4, 437 162.9, 432 167 Z" fill="#794230"/>
  <path d="M 464 167 C 459 162.9, 457 160.4, 457 157.7 C 457 155.1, 459 153.4, 461.4 153.4 C 462.9 153.4, 463.7 154.2, 464 155.3 C 464.3 154.2, 465.1 153.4, 466.6 153.4 C 469 153.4, 471 155.1, 471 157.7 C 471 160.4, 469 162.9, 464 167 Z" fill="#794230"/>
  <path d="M 32 183 C 27 178.9, 25 176.4, 25 173.7 C 25 171.1, 27 169.4, 29.4 169.4 C 30.9 169.4, 31.7 170.2, 32 171.3 C 32.3 170.2, 33.1 169.4, 34.6 169.4 C 37 169.4, 39 171.1, 39 173.7 C 39 176.4, 37 178.9, 32 183 Z" fill="#794230"/>
  <path d="M 160 183 C 155 178.9, 153 176.4, 153 173.7 C 153 171.1, 155 169.4, 157.4 169.4 C 158.9 169.4, 159.7 170.2, 160 171.3 C 160.3 170.2, 161.1 169.4, 162.6 169.4 C 165 169.4, 167 171.1, 167 173.7 C 167 176.4, 165 178.9, 160 183 Z" fill="#794230"/>
  <path d="M 192 183 C 187 178.9, 185 176.4, 185 173.7 C 185 171.1, 187 169.4, 189.4 169.4 C 190.9 169.4, 191.7 170.2, 192 171.3 C 192.3 170.2, 193.1 169.4, 194.6 169.4 C 197 169.4, 199 171.1, 199 173.7 C 199 176.4, 197 178.9, 192 183 Z" fill="#794230"/>
  <path d="M 224 183 C 219 178.9, 217 176.4, 217 173.7 C 217 171.1, 219 169.4, 221.4 169.4 C 222.9 169.4, 223.7 170.2, 224 171.3 C 224.3 170.2, 225.1 169.4, 226.6 169.4 C 229 169.4, 231 171.1, 231 173.7 C 231 176.4, 229 178.9, 224 183 Z" fill="#794230"/>
  <path d="M 288 183 C 283 178.9, 281 176.4, 281 173.7 C 281 171.1, 283 169.4, 285.4 169.4 C 286.9 169.4, 287.7 170.2, 288 171.3 C 288.3 170.2, 289.1 169.4, 290.6 169.4 C 293 169.4, 295 171.1, 295 173.7 C 295 176.4, 293 178.9, 288 183 Z" fill="#794230"/>
  <path d="M 304 183 C 299 178.9, 297 176.4, 297 173.7 C 297 171.1, 299 169.4, 301.4 169.4 C 302.9 169.4, 303.7 170.2, 304 171.3 C 304.3 170.2, 305.1 169.4, 306.6 169.4 C 309 169.4, 311 171.1, 311 173.7 C 311 176.4, 309 178.9, 304 183 Z" fill="#794230"/>
  <path d="M 320 183 C 315 178.9, 313 176.4, 313 173.7 C 313 171.1, 315 169.4, 317.4 169.4 C 318.9 169.4, 319.7 170.2, 320 171.3 C 320.3 170.2, 321.1 169.4, 322.6 169.4 C 325 169.4, 327 171.1, 327 173.7 C 327 176.4, 325 178.9, 320 183 Z" fill="#794230"/>
  <path d="M 336 183 C 331 178.9, 329 176.4, 329 173.7 C 329 171.1, 331 169.4, 333.4 169.4 C 334.9 169.4, 335.7 170.2, 336 171.3 C 336.3 170.2, 337.1 169.4, 338.6 169.4 C 341 169.4, 343 171.1, 343 173.7 C 343 176.4, 341 178.9, 336 183 Z" fill="#794230"/>
  <path d="M 384 183 C 379 178.9, 377 176.4, 377 173.7 C 377 171.1, 379 169.4, 381.4 169.4 C 382.9 169.4, 383.7 170.2, 384 171.3 C 384.3 170.2, 385.1 169.4, 386.6 169.4 C 389 169.4, 391 171.1, 391 173.7 C 391 176.4, 389 178.9, 384 183 Z" fill="#794230"/>
  <path d="M 400 183 C 395 178.9, 393 176.4, 393 173.7 C 393 171.1, 395 169.4, 397.4 169.4 C 398.9 169.4, 399.7 170.2, 400 171.3 C 400.3 170.2, 401.1 169.4, 402.6 169.4 C 405 169.4, 407 171.1, 407 173.7 C 407 176.4, 405 178.9, 400 183 Z" fill="#794230"/>
  <path d="M 416 183 C 411 178.9, 409 176.4, 409 173.7 C 409 171.1, 411 169.4, 413.4 169.4 C 414.9 169.4, 415.7 170.2, 416 171.3 C 416.3 170.2, 417.1 169.4, 418.6 169.4 C 421 169.4, 423 171.1, 423 173.7 C 423 176.4, 421 178.9, 416 183 Z" fill="#794230"/>
  <path d="M 480 183 C 475 178.9, 473 176.4, 473 173.7 C 473 171.1, 475 169.4, 477.4 169.4 C 478.9 169.4, 479.7 170.2, 480 171.3 C 480.3 170.2, 481.1 169.4, 482.6 169.4 C 485 169.4, 487 171.1, 487 173.7 C 487 176.4, 485 178.9, 480 183 Z" fill="#794230"/>
  <path d="M 32 199 C 27 194.9, 25 192.4, 25 189.7 C 25 187.1, 27 185.4, 29.4 185.4 C 30.9 185.4, 31.7 186.2, 32 187.3 C 32.3 186.2, 33.1 185.4, 34.6 185.4 C 37 185.4, 39 187.1, 39 189.7 C 39 192.4, 37 194.9, 32 199 Z" fill="#794230"/>
  <path d="M 48 199 C 43 194.9, 41 192.4, 41 189.7 C 41 187.1, 43 185.4, 45.4 185.4 C 46.9 185.4, 47.7 186.2, 48 187.3 C 48.3 186.2, 49.1 185.4, 50.6 185.4 C 53 185.4, 55 187.1, 55 189.7 C 55 192.4, 53 194.9, 48 199 Z" fill="#794230"/>
  <path d="M 80 199 C 75 194.9, 73 192.4, 73 189.7 C 73 187.1, 75 185.4, 77.4 185.4 C 78.9 185.4, 79.7 186.2, 80 187.3 C 80.3 186.2, 81.1 185.4, 82.6 185.4 C 85 185.4, 87 187.1, 87 189.7 C 87 192.4, 85 194.9, 80 199 Z" fill="#794230"/>
  <path d="M 128 199 C 123 194.9, 121 192.4, 121 189.7 C 121 187.1, 123 185.4, 125.4 185.4 C 126.9 185.4, 127.7 186.2, 128 187.3 C 128.3 186.2, 129.1 185.4, 130.6 185.4 C 133 185.4, 135 187.1, 135 189.7 C 135 192.4, 133 194.9, 128 199 Z" fill="#794230"/>
  <path d="M 144 199 C 139 194.9, 137 192.4, 137 189.7 C 137 187.1, 139 185.4, 141.4 185.4 C 142.9 185.4, 143.7 186.2, 144 187.3 C 144.3 186.2, 145.1 185.4, 146.6 185.4 C 149 185.4, 151 187.1, 151 189.7 C 151 192.4, 149 194.9, 144 199 Z" fill="#794230"/>
  <path d="M 160 199 C 155 194.9, 153 192.4, 153 189.7 C 153 187.1, 155 185.4, 157.4 185.4 C 158.9 185.4, 159.7 186.2, 160 187.3 C 160.3 186.2, 161.1 185.4, 162.6 185.4 C 165 185.4, 167 187.1, 167 189.7 C 167 192.4, 165 194.9, 160 199 Z" fill="#794230"/>
  <path d="M 192 199 C 187 194.9, 185 192.4, 185 189.7 C 185 187.1, 187 185.4, 189.4 185.4 C 190.9 185.4, 191.7 186.2, 192 187.3 C 192.3 186.2, 193.1 185.4, 194.6 185.4 C 197 185.4, 199 187.1, 199 189.7 C 199 192.4, 197 194.9, 192 199 Z" fill="#794230"/>
  <path d="M 256 199 C 251 194.9, 249 192.4, 249 189.7 C 249 187.1, 251 185.4, 253.4 185.4 C 254.9 185.4, 255.7 186.2, 256 187.3 C 256.3 186.2, 257.1 185.4, 258.6 185.4 C 261 185.4, 263 187.1, 263 189.7 C 263 192.4, 261 194.9, 256 199 Z" fill="#794230"/>
  <path d="M 272 199 C 267 194.9, 265 192.4, 265 189.7 C 265 187.1, 267 185.4, 269.4 185.4 C 270.9 185.4, 271.7 186.2, 272 187.3 C 272.3 186.2, 273.1 185.4, 274.6 185.4 C 277 185.4, 279 187.1, 279 189.7 C 279 192.4, 277 194.9, 272 199 Z" fill="#794230"/>
  <path d="M 288 199 C 283 194.9, 281 192.4, 281 189.7 C 281 187.1, 283 185.4, 285.4 185.4 C 286.9 185.4, 287.7 186.2, 288 187.3 C 288.3 186.2, 289.1 185.4, 290.6 185.4 C 293 185.4, 295 187.1, 295 189.7 C 295 192.4, 293 194.9, 288 199 Z" fill="#794230"/>
  <path d="M 304 199 C 299 194.9, 297 192.4, 297 189.7 C 297 187.1, 299 185.4, 301.4 185.4 C 302.9 185.4, 303.7 186.2, 304 187.3 C 304.3 186.2, 305.1 185.4, 306.6 185.4 C 309 185.4, 311 187.1, 311 189.7 C 311 192.4, 309 194.9, 304 199 Z" fill="#794230"/>
  <path d="M 416 199 C 411 194.9, 409 192.4, 409 189.7 C 409 187.1, 411 185.4, 413.4 185.4 C 414.9 185.4, 415.7 186.2, 416 187.3 C 416.3 186.2, 417.1 185.4, 418.6 185.4 C 421 185.4, 423 187.1, 423 189.7 C 423 192.4, 421 194.9, 416 199 Z" fill="#794230"/>
  <path d="M 48 215 C 43 210.9, 41 208.4, 41 205.7 C 41 203.1, 43 201.4, 45.4 201.4 C 46.9 201.4, 47.7 202.2, 48 203.3 C 48.3 202.2, 49.1 201.4, 50.6 201.4 C 53 201.4, 55 203.1, 55 205.7 C 55 208.4, 53 210.9, 48 215 Z" fill="#794230"/>
  <path d="M 64 215 C 59 210.9, 57 208.4, 57 205.7 C 57 203.1, 59 201.4, 61.4 201.4 C 62.9 201.4, 63.7 202.2, 64 203.3 C 64.3 202.2, 65.1 201.4, 66.6 201.4 C 69 201.4, 71 203.1, 71 205.7 C 71 208.4, 69 210.9, 64 215 Z" fill="#794230"/>
  <path d="M 80 215 C 75 210.9, 73 208.4, 73 205.7 C 73 203.1, 75 201.4, 77.4 201.4 C 78.9 201.4, 79.7 202.2, 80 203.3 C 80.3 202.2, 81.1 201.4, 82.6 201.4 C 85 201.4, 87 203.1, 87 205.7 C 87 208.4, 85 210.9, 80 215 Z" fill="#794230"/>
  <path d="M 96 215 C 91 210.9, 89 208.4, 89 205.7 C 89 203.1, 91 201.4, 93.4 201.4 C 94.9 201.4, 95.7 202.2, 96 203.3 C 96.3 202.2, 97.1 201.4, 98.6 201.4 C 101 201.4, 103 203.1, 103 205.7 C 103 208.4, 101 210.9, 96 215 Z" fill="#794230"/>
  <path d="M 224 215 C 219 210.9, 217 208.4, 217 205.7 C 217 203.1, 219 201.4, 221.4 201.4 C 222.9 201.4, 223.7 202.2, 224 203.3 C 224.3 202.2, 225.1 201.4, 226.6 201.4 C 229 201.4, 231 203.1, 231 205.7 C 231 208.4, 229 210.9, 224 215 Z" fill="#794230"/>
  <path d="M 272 215 C 267 210.9, 265 208.4, 265 205.7 C 265 203.1, 267 201.4, 269.4 201.4 C 270.9 201.4, 271.7 202.2, 272 203.3 C 272.3 202.2, 273.1 201.4, 274.6 201.4 C 277 201.4, 279 203.1, 279 205.7 C 279 208.4, 277 210.9, 272 215 Z" fill="#794230"/>
  <path d="M 288 215 C 283 210.9, 281 208.4, 281 205.7 C 281 203.1, 283 201.4, 285.4 201.4 C 286.9 201.4, 287.7 202.2, 288 203.3 C 288.3 202.2, 289.1 201.4, 290.6 201.4 C 293 201.4, 295 203.1, 295 205.7 C 295 208.4, 293 210.9, 288 215 Z" fill="#794230"/>
  <path d="M 320 215 C 315 210.9, 313 208.4, 313 205.7 C 313 203.1, 315 201.4, 317.4 201.4 C 318.9 201.4, 319.7 202.2, 320 203.3 C 320.3 202.2, 321.1 201.4, 322.6 201.4 C 325 201.4, 327 203.1, 327 205.7 C 327 208.4, 325 210.9, 320 215 Z" fill="#794230"/>
  <path d="M 336 215 C 331 210.9, 329 208.4, 329 205.7 C 329 203.1, 331 201.4, 333.4 201.4 C 334.9 201.4, 335.7 202.2, 336 203.3 C 336.3 202.2, 337.1 201.4, 338.6 201.4 C 341 201.4, 343 203.1, 343 205.7 C 343 208.4, 341 210.9, 336 215 Z" fill="#794230"/>
  <path d="M 368 215 C 363 210.9, 361 208.4, 361 205.7 C 361 203.1, 363 201.4, 365.4 201.4 C 366.9 201.4, 367.7 202.2, 368 203.3 C 368.3 202.2, 369.1 201.4, 370.6 201.4 C 373 201.4, 375 203.1, 375 205.7 C 375 208.4, 373 210.9, 368 215 Z" fill="#794230"/>
  <path d="M 384 215 C 379 210.9, 377 208.4, 377 205.7 C 377 203.1, 379 201.4, 381.4 201.4 C 382.9 201.4, 383.7 202.2, 384 203.3 C 384.3 202.2, 385.1 201.4, 386.6 201.4 C 389 201.4, 391 203.1, 391 205.7 C 391 208.4, 389 210.9, 384 215 Z" fill="#794230"/>
  <path d="M 416 215 C 411 210.9, 409 208.4, 409 205.7 C 409 203.1, 411 201.4, 413.4 201.4 C 414.9 201.4, 415.7 202.2, 416 203.3 C 416.3 202.2, 417.1 201.4, 418.6 201.4 C 421 201.4, 423 203.1, 423 205.7 C 423 208.4, 421 210.9, 416 215 Z" fill="#794230"/>
  <path d="M 432 215 C 427 210.9, 425 208.4, 425 205.7 C 425 203.1, 427 201.4, 429.4 201.4 C 430.9 201.4, 431.7 202.2, 432 203.3 C 432.3 202.2, 433.1 201.4, 434.6 201.4 C 437 201.4, 439 203.1, 439 205.7 C 439 208.4, 437 210.9, 432 215 Z" fill="#794230"/>
  <path d="M 464 215 C 459 210.9, 457 208.4, 457 205.7 C 457 203.1, 459 201.4, 461.4 201.4 C 462.9 201.4, 463.7 202.2, 464 203.3 C 464.3 202.2, 465.1 201.4, 466.6 201.4 C 469 201.4, 471 203.1, 471 205.7 C 471 208.4, 469 210.9, 464 215 Z" fill="#794230"/>
  <path d="M 32 231 C 27 226.9, 25 224.4, 25 221.7 C 25 219.1, 27 217.4, 29.4 217.4 C 30.9 217.4, 31.7 218.2, 32 219.3 C 32.3 218.2, 33.1 217.4, 34.6 217.4 C 37 217.4, 39 219.1, 39 221.7 C 39 224.4, 37 226.9, 32 231 Z" fill="#794230"/>
  <path d="M 64 231 C 59 226.9, 57 224.4, 57 221.7 C 57 219.1, 59 217.4, 61.4 217.4 C 62.9 217.4, 63.7 218.2, 64 219.3 C 64.3 218.2, 65.1 217.4, 66.6 217.4 C 69 217.4, 71 219.1, 71 221.7 C 71 224.4, 69 226.9, 64 231 Z" fill="#794230"/>
  <path d="M 128 231 C 123 226.9, 121 224.4, 121 221.7 C 121 219.1, 123 217.4, 125.4 217.4 C 126.9 217.4, 127.7 218.2, 128 219.3 C 128.3 218.2, 129.1 217.4, 130.6 217.4 C 133 217.4, 135 219.1, 135 221.7 C 135 224.4, 133 226.9, 128 231 Z" fill="#794230"/>
  <path d="M 144 231 C 139 226.9, 137 224.4, 137 221.7 C 137 219.1, 139 217.4, 141.4 217.4 C 142.9 217.4, 143.7 218.2, 144 219.3 C 144.3 218.2, 145.1 217.4, 146.6 217.4 C 149 217.4, 151 219.1, 151 221.7 C 151 224.4, 149 226.9, 144 231 Z" fill="#794230"/>
  <path d="M 160 231 C 155 226.9, 153 224.4, 153 221.7 C 153 219.1, 155 217.4, 157.4 217.4 C 158.9 217.4, 159.7 218.2, 160 219.3 C 160.3 218.2, 161.1 217.4, 162.6 217.4 C 165 217.4, 167 219.1, 167 221.7 C 167 224.4, 165 226.9, 160 231 Z" fill="#794230"/>
  <path d="M 176 231 C 171 226.9, 169 224.4, 169 221.7 C 169 219.1, 171 217.4, 173.4 217.4 C 174.9 217.4, 175.7 218.2, 176 219.3 C 176.3 218.2, 177.1 217.4, 178.6 217.4 C 181 217.4, 183 219.1, 183 221.7 C 183 224.4, 181 226.9, 176 231 Z" fill="#794230"/>
  <path d="M 192 231 C 187 226.9, 185 224.4, 185 221.7 C 185 219.1, 187 217.4, 189.4 217.4 C 190.9 217.4, 191.7 218.2, 192 219.3 C 192.3 218.2, 193.1 217.4, 194.6 217.4 C 197 217.4, 199 219.1, 199 221.7 C 199 224.4, 197 226.9, 192 231 Z" fill="#794230"/>
  <path d="M 224 231 C 219 226.9, 217 224.4, 217 221.7 C 217 219.1, 219 217.4, 221.4 217.4 C 222.9 217.4, 223.7 218.2, 224 219.3 C 224.3 218.2, 225.1 217.4, 226.6 217.4 C 229 217.4, 231 219.1, 231 221.7 C 231 224.4, 229 226.9, 224 231 Z" fill="#794230"/>
  <path d="M 240 231 C 235 226.9, 233 224.4, 233 221.7 C 233 219.1, 235 217.4, 237.4 217.4 C 238.9 217.4, 239.7 218.2, 240 219.3 C 240.3 218.2, 241.1 217.4, 242.6 217.4 C 245 217.4, 247 219.1, 247 221.7 C 247 224.4, 245 226.9, 240 231 Z" fill="#794230"/>
  <path d="M 256 231 C 251 226.9, 249 224.4, 249 221.7 C 249 219.1, 251 217.4, 253.4 217.4 C 254.9 217.4, 255.7 218.2, 256 219.3 C 256.3 218.2, 257.1 217.4, 258.6 217.4 C 261 217.4, 263 219.1, 263 221.7 C 263 224.4, 261 226.9, 256 231 Z" fill="#794230"/>
  <path d="M 272 231 C 267 226.9, 265 224.4, 265 221.7 C 265 219.1, 267 217.4, 269.4 217.4 C 270.9 217.4, 271.7 218.2, 272 219.3 C 272.3 218.2, 273.1 217.4, 274.6 217.4 C 277 217.4, 279 219.1, 279 221.7 C 279 224.4, 277 226.9, 272 231 Z" fill="#794230"/>
  <path d="M 304 231 C 299 226.9, 297 224.4, 297 221.7 C 297 219.1, 299 217.4, 301.4 217.4 C 302.9 217.4, 303.7 218.2, 304 219.3 C 304.3 218.2, 305.1 217.4, 306.6 217.4 C 309 217.4, 311 219.1, 311 221.7 C 311 224.4, 309 226.9, 304 231 Z" fill="#794230"/>
  <path d="M 368 231 C 363 226.9, 361 224.4, 361 221.7 C 361 219.1, 363 217.4, 365.4 217.4 C 366.9 217.4, 367.7 218.2, 368 219.3 C 368.3 218.2, 369.1 217.4, 370.6 217.4 C 373 217.4, 375 219.1, 375 221.7 C 375 224.4, 373 226.9, 368 231 Z" fill="#794230"/>
  <path d="M 400 231 C 395 226.9, 393 224.4, 393 221.7 C 393 219.1, 395 217.4, 397.4 217.4 C 398.9 217.4, 399.7 218.2, 400 219.3 C 400.3 218.2, 401.1 217.4, 402.6 217.4 C 405 217.4, 407 219.1, 407 221.7 C 407 224.4, 405 226.9, 400 231 Z" fill="#794230"/>
  <path d="M 432 231 C 427 226.9, 425 224.4, 425 221.7 C 425 219.1, 427 217.4, 429.4 217.4 C 430.9 217.4, 431.7 218.2, 432 219.3 C 432.3 218.2, 433.1 217.4, 434.6 217.4 C 437 217.4, 439 219.1, 439 221.7 C 439 224.4, 437 226.9, 432 231 Z" fill="#794230"/>
  <path d="M 448 231 C 443 226.9, 441 224.4, 441 221.7 C 441 219.1, 443 217.4, 445.4 217.4 C 446.9 217.4, 447.7 218.2, 448 219.3 C 448.3 218.2, 449.1 217.4, 450.6 217.4 C 453 217.4, 455 219.1, 455 221.7 C 455 224.4, 453 226.9, 448 231 Z" fill="#794230"/>
  <path d="M 32 247 C 27 242.9, 25 240.4, 25 237.7 C 25 235.1, 27 233.4, 29.4 233.4 C 30.9 233.4, 31.7 234.2, 32 235.3 C 32.3 234.2, 33.1 233.4, 34.6 233.4 C 37 233.4, 39 235.1, 39 237.7 C 39 240.4, 37 242.9, 32 247 Z" fill="#794230"/>
  <path d="M 112 247 C 107 242.9, 105 240.4, 105 237.7 C 105 235.1, 107 233.4, 109.4 233.4 C 110.9 233.4, 111.7 234.2, 112 235.3 C 112.3 234.2, 113.1 233.4, 114.6 233.4 C 117 233.4, 119 235.1, 119 237.7 C 119 240.4, 117 242.9, 112 247 Z" fill="#794230"/>
  <path d="M 144 247 C 139 242.9, 137 240.4, 137 237.7 C 137 235.1, 139 233.4, 141.4 233.4 C 142.9 233.4, 143.7 234.2, 144 235.3 C 144.3 234.2, 145.1 233.4, 146.6 233.4 C 149 233.4, 151 235.1, 151 237.7 C 151 240.4, 149 242.9, 144 247 Z" fill="#794230"/>
  <path d="M 288 247 C 283 242.9, 281 240.4, 281 237.7 C 281 235.1, 283 233.4, 285.4 233.4 C 286.9 233.4, 287.7 234.2, 288 235.3 C 288.3 234.2, 289.1 233.4, 290.6 233.4 C 293 233.4, 295 235.1, 295 237.7 C 295 240.4, 293 242.9, 288 247 Z" fill="#794230"/>
  <path d="M 320 247 C 315 242.9, 313 240.4, 313 237.7 C 313 235.1, 315 233.4, 317.4 233.4 C 318.9 233.4, 319.7 234.2, 320 235.3 C 320.3 234.2, 321.1 233.4, 322.6 233.4 C 325 233.4, 327 235.1, 327 237.7 C 327 240.4, 325 242.9, 320 247 Z" fill="#794230"/>
  <path d="M 336 247 C 331 242.9, 329 240.4, 329 237.7 C 329 235.1, 331 233.4, 333.4 233.4 C 334.9 233.4, 335.7 234.2, 336 235.3 C 336.3 234.2, 337.1 233.4, 338.6 233.4 C 341 233.4, 343 235.1, 343 237.7 C 343 240.4, 341 242.9, 336 247 Z" fill="#794230"/>
  <path d="M 352 247 C 347 242.9, 345 240.4, 345 237.7 C 345 235.1, 347 233.4, 349.4 233.4 C 350.9 233.4, 351.7 234.2, 352 235.3 C 352.3 234.2, 353.1 233.4, 354.6 233.4 C 357 233.4, 359 235.1, 359 237.7 C 359 240.4, 357 242.9, 352 247 Z" fill="#794230"/>
  <path d="M 368 247 C 363 242.9, 361 240.4, 361 237.7 C 361 235.1, 363 233.4, 365.4 233.4 C 366.9 233.4, 367.7 234.2, 368 235.3 C 368.3 234.2, 369.1 233.4, 370.6 233.4 C 373 233.4, 375 235.1, 375 237.7 C 375 240.4, 373 242.9, 368 247 Z" fill="#794230"/>
  <path d="M 384 247 C 379 242.9, 377 240.4, 377 237.7 C 377 235.1, 379 233.4, 381.4 233.4 C 382.9 233.4, 383.7 234.2, 384 235.3 C 384.3 234.2, 385.1 233.4, 386.6 233.4 C 389 233.4, 391 235.1, 391 237.7 C 391 240.4, 389 242.9, 384 247 Z" fill="#794230"/>
  <path d="M 416 247 C 411 242.9, 409 240.4, 409 237.7 C 409 235.1, 411 233.4, 413.4 233.4 C 414.9 233.4, 415.7 234.2, 416 235.3 C 416.3 234.2, 417.1 233.4, 418.6 233.4 C 421 233.4, 423 235.1, 423 237.7 C 423 240.4, 421 242.9, 416 247 Z" fill="#794230"/>
  <path d="M 480 247 C 475 242.9, 473 240.4, 473 237.7 C 473 235.1, 475 233.4, 477.4 233.4 C 478.9 233.4, 479.7 234.2, 480 235.3 C 480.3 234.2, 481.1 233.4, 482.6 233.4 C 485 233.4, 487 235.1, 487 237.7 C 487 240.4, 485 242.9, 480 247 Z" fill="#794230"/>
  <path d="M 32 263 C 27 258.9, 25 256.4, 25 253.7 C 25 251.1, 27 249.4, 29.4 249.4 C 30.9 249.4, 31.7 250.2, 32 251.3 C 32.3 250.2, 33.1 249.4, 34.6 249.4 C 37 249.4, 39 251.1, 39 253.7 C 39 256.4, 37 258.9, 32 263 Z" fill="#794230"/>
  <path d="M 48 263 C 43 258.9, 41 256.4, 41 253.7 C 41 251.1, 43 249.4, 45.4 249.4 C 46.9 249.4, 47.7 250.2, 48 251.3 C 48.3 250.2, 49.1 249.4, 50.6 249.4 C 53 249.4, 55 251.1, 55 253.7 C 55 256.4, 53 258.9, 48 263 Z" fill="#794230"/>
  <path d="M 128 263 C 123 258.9, 121 256.4, 121 253.7 C 121 251.1, 123 249.4, 125.4 249.4 C 126.9 249.4, 127.7 250.2, 128 251.3 C 128.3 250.2, 129.1 249.4, 130.6 249.4 C 133 249.4, 135 251.1, 135 253.7 C 135 256.4, 133 258.9, 128 263 Z" fill="#794230"/>
  <path d="M 192 263 C 187 258.9, 185 256.4, 185 253.7 C 185 251.1, 187 249.4, 189.4 249.4 C 190.9 249.4, 191.7 250.2, 192 251.3 C 192.3 250.2, 193.1 249.4, 194.6 249.4 C 197 249.4, 199 251.1, 199 253.7 C 199 256.4, 197 258.9, 192 263 Z" fill="#794230"/>
  <path d="M 208 263 C 203 258.9, 201 256.4, 201 253.7 C 201 251.1, 203 249.4, 205.4 249.4 C 206.9 249.4, 207.7 250.2, 208 251.3 C 208.3 250.2, 209.1 249.4, 210.6 249.4 C 213 249.4, 215 251.1, 215 253.7 C 215 256.4, 213 258.9, 208 263 Z" fill="#794230"/>
  <path d="M 224 263 C 219 258.9, 217 256.4, 217 253.7 C 217 251.1, 219 249.4, 221.4 249.4 C 222.9 249.4, 223.7 250.2, 224 251.3 C 224.3 250.2, 225.1 249.4, 226.6 249.4 C 229 249.4, 231 251.1, 231 253.7 C 231 256.4, 229 258.9, 224 263 Z" fill="#794230"/>
  <path d="M 256 263 C 251 258.9, 249 256.4, 249 253.7 C 249 251.1, 251 249.4, 253.4 249.4 C 254.9 249.4, 255.7 250.2, 256 251.3 C 256.3 250.2, 257.1 249.4, 258.6 249.4 C 261 249.4, 263 251.1, 263 253.7 C 263 256.4, 261 258.9, 256 263 Z" fill="#794230"/>
  <path d="M 272 263 C 267 258.9, 265 256.4, 265 253.7 C 265 251.1, 267 249.4, 269.4 249.4 C 270.9 249.4, 271.7 250.2, 272 251.3 C 272.3 250.2, 273.1 249.4, 274.6 249.4 C 277 249.4, 279 251.1, 279 253.7 C 279 256.4, 277 258.9, 272 263 Z" fill="#794230"/>
  <path d="M 320 263 C 315 258.9, 313 256.4, 313 253.7 C 313 251.1, 315 249.4, 317.4 249.4 C 318.9 249.4, 319.7 250.2, 320 251.3 C 320.3 250.2, 321.1 249.4, 322.6 249.4 C 325 249.4, 327 251.1, 327 253.7 C 327 256.4, 325 258.9, 320 263 Z" fill="#794230"/>
  <path d="M 352 263 C 347 258.9, 345 256.4, 345 253.7 C 345 251.1, 347 249.4, 349.4 249.4 C 350.9 249.4, 351.7 250.2, 352 251.3 C 352.3 250.2, 353.1 249.4, 354.6 249.4 C 357 249.4, 359 251.1, 359 253.7 C 359 256.4, 357 258.9, 352 263 Z" fill="#794230"/>
  <path d="M 384 263 C 379 258.9, 377 256.4, 377 253.7 C 377 251.1, 379 249.4, 381.4 249.4 C 382.9 249.4, 383.7 250.2, 384 251.3 C 384.3 250.2, 385.1 249.4, 386.6 249.4 C 389 249.4, 391 251.1, 391 253.7 C 391 256.4, 389 258.9, 384 263 Z" fill="#794230"/>
  <path d="M 416 263 C 411 258.9, 409 256.4, 409 253.7 C 409 251.1, 411 249.4, 413.4 249.4 C 414.9 249.4, 415.7 250.2, 416 251.3 C 416.3 250.2, 417.1 249.4, 418.6 249.4 C 421 249.4, 423 251.1, 423 253.7 C 423 256.4, 421 258.9, 416 263 Z" fill="#794230"/>
  <path d="M 432 263 C 427 258.9, 425 256.4, 425 253.7 C 425 251.1, 427 249.4, 429.4 249.4 C 430.9 249.4, 431.7 250.2, 432 251.3 C 432.3 250.2, 433.1 249.4, 434.6 249.4 C 437 249.4, 439 251.1, 439 253.7 C 439 256.4, 437 258.9, 432 263 Z" fill="#794230"/>
  <path d="M 448 263 C 443 258.9, 441 256.4, 441 253.7 C 441 251.1, 443 249.4, 445.4 249.4 C 446.9 249.4, 447.7 250.2, 448 251.3 C 448.3 250.2, 449.1 249.4, 450.6 249.4 C 453 249.4, 455 251.1, 455 253.7 C 455 256.4, 453 258.9, 448 263 Z" fill="#794230"/>
  <path d="M 48 279 C 43 274.9, 41 272.4, 41 269.7 C 41 267.1, 43 265.4, 45.4 265.4 C 46.9 265.4, 47.7 266.2, 48 267.3 C 48.3 266.2, 49.1 265.4, 50.6 265.4 C 53 265.4, 55 267.1, 55 269.7 C 55 272.4, 53 274.9, 48 279 Z" fill="#794230"/>
  <path d="M 64 279 C 59 274.9, 57 272.4, 57 269.7 C 57 267.1, 59 265.4, 61.4 265.4 C 62.9 265.4, 63.7 266.2, 64 267.3 C 64.3 266.2, 65.1 265.4, 66.6 265.4 C 69 265.4, 71 267.1, 71 269.7 C 71 272.4, 69 274.9, 64 279 Z" fill="#794230"/>
  <path d="M 80 279 C 75 274.9, 73 272.4, 73 269.7 C 73 267.1, 75 265.4, 77.4 265.4 C 78.9 265.4, 79.7 266.2, 80 267.3 C 80.3 266.2, 81.1 265.4, 82.6 265.4 C 85 265.4, 87 267.1, 87 269.7 C 87 272.4, 85 274.9, 80 279 Z" fill="#794230"/>
  <path d="M 96 279 C 91 274.9, 89 272.4, 89 269.7 C 89 267.1, 91 265.4, 93.4 265.4 C 94.9 265.4, 95.7 266.2, 96 267.3 C 96.3 266.2, 97.1 265.4, 98.6 265.4 C 101 265.4, 103 267.1, 103 269.7 C 103 272.4, 101 274.9, 96 279 Z" fill="#794230"/>
  <path d="M 112 279 C 107 274.9, 105 272.4, 105 269.7 C 105 267.1, 107 265.4, 109.4 265.4 C 110.9 265.4, 111.7 266.2, 112 267.3 C 112.3 266.2, 113.1 265.4, 114.6 265.4 C 117 265.4, 119 267.1, 119 269.7 C 119 272.4, 117 274.9, 112 279 Z" fill="#794230"/>
  <path d="M 144 279 C 139 274.9, 137 272.4, 137 269.7 C 137 267.1, 139 265.4, 141.4 265.4 C 142.9 265.4, 143.7 266.2, 144 267.3 C 144.3 266.2, 145.1 265.4, 146.6 265.4 C 149 265.4, 151 267.1, 151 269.7 C 151 272.4, 149 274.9, 144 279 Z" fill="#794230"/>
  <path d="M 160 279 C 155 274.9, 153 272.4, 153 269.7 C 153 267.1, 155 265.4, 157.4 265.4 C 158.9 265.4, 159.7 266.2, 160 267.3 C 160.3 266.2, 161.1 265.4, 162.6 265.4 C 165 265.4, 167 267.1, 167 269.7 C 167 272.4, 165 274.9, 160 279 Z" fill="#794230"/>
  <path d="M 208 279 C 203 274.9, 201 272.4, 201 269.7 C 201 267.1, 203 265.4, 205.4 265.4 C 206.9 265.4, 207.7 266.2, 208 267.3 C 208.3 266.2, 209.1 265.4, 210.6 265.4 C 213 265.4, 215 267.1, 215 269.7 C 215 272.4, 213 274.9, 208 279 Z" fill="#794230"/>
  <path d="M 272 279 C 267 274.9, 265 272.4, 265 269.7 C 265 267.1, 267 265.4, 269.4 265.4 C 270.9 265.4, 271.7 266.2, 272 267.3 C 272.3 266.2, 273.1 265.4, 274.6 265.4 C 277 265.4, 279 267.1, 279 269.7 C 279 272.4, 277 274.9, 272 279 Z" fill="#794230"/>
  <path d="M 288 279 C 283 274.9, 281 272.4, 281 269.7 C 281 267.1, 283 265.4, 285.4 265.4 C 286.9 265.4, 287.7 266.2, 288 267.3 C 288.3 266.2, 289.1 265.4, 290.6 265.4 C 293 265.4, 295 267.1, 295 269.7 C 295 272.4, 293 274.9, 288 279 Z" fill="#794230"/>
  <path d="M 352 279 C 347 274.9, 345 272.4, 345 269.7 C 345 267.1, 347 265.4, 349.4 265.4 C 350.9 265.4, 351.7 266.2, 352 267.3 C 352.3 266.2, 353.1 265.4, 354.6 265.4 C 357 265.4, 359 267.1, 359 269.7 C 359 272.4, 357 274.9, 352 279 Z" fill="#794230"/>
  <path d="M 368 279 C 363 274.9, 361 272.4, 361 269.7 C 361 267.1, 363 265.4, 365.4 265.4 C 366.9 265.4, 367.7 266.2, 368 267.3 C 368.3 266.2, 369.1 265.4, 370.6 265.4 C 373 265.4, 375 267.1, 375 269.7 C 375 272.4, 373 274.9, 368 279 Z" fill="#794230"/>
  <path d="M 384 279 C 379 274.9, 377 272.4, 377 269.7 C 377 267.1, 379 265.4, 381.4 265.4 C 382.9 265.4, 383.7 266.2, 384 267.3 C 384.3 266.2, 385.1 265.4, 386.6 265.4 C 389 265.4, 391 267.1, 391 269.7 C 391 272.4, 389 274.9, 384 279 Z" fill="#794230"/>
  <path d="M 400 279 C 395 274.9, 393 272.4, 393 269.7 C 393 267.1, 395 265.4, 397.4 265.4 C 398.9 265.4, 399.7 266.2, 400 267.3 C 400.3 266.2, 401.1 265.4, 402.6 265.4 C 405 265.4, 407 267.1, 407 269.7 C 407 272.4, 405 274.9, 400 279 Z" fill="#794230"/>
  <path d="M 416 279 C 411 274.9, 409 272.4, 409 269.7 C 409 267.1, 411 265.4, 413.4 265.4 C 414.9 265.4, 415.7 266.2, 416 267.3 C 416.3 266.2, 417.1 265.4, 418.6 265.4 C 421 265.4, 423 267.1, 423 269.7 C 423 272.4, 421 274.9, 416 279 Z" fill="#794230"/>
  <path d="M 464 279 C 459 274.9, 457 272.4, 457 269.7 C 457 267.1, 459 265.4, 461.4 265.4 C 462.9 265.4, 463.7 266.2, 464 267.3 C 464.3 266.2, 465.1 265.4, 466.6 265.4 C 469 265.4, 471 267.1, 471 269.7 C 471 272.4, 469 274.9, 464 279 Z" fill="#794230"/>
  <path d="M 48 295 C 43 290.9, 41 288.4, 41 285.7 C 41 283.1, 43 281.4, 45.4 281.4 C 46.9 281.4, 47.7 282.2, 48 283.3 C 48.3 282.2, 49.1 281.4, 50.6 281.4 C 53 281.4, 55 283.1, 55 285.7 C 55 288.4, 53 290.9, 48 295 Z" fill="#794230"/>
  <path d="M 64 295 C 59 290.9, 57 288.4, 57 285.7 C 57 283.1, 59 281.4, 61.4 281.4 C 62.9 281.4, 63.7 282.2, 64 283.3 C 64.3 282.2, 65.1 281.4, 66.6 281.4 C 69 281.4, 71 283.1, 71 285.7 C 71 288.4, 69 290.9, 64 295 Z" fill="#794230"/>
  <path d="M 80 295 C 75 290.9, 73 288.4, 73 285.7 C 73 283.1, 75 281.4, 77.4 281.4 C 78.9 281.4, 79.7 282.2, 80 283.3 C 80.3 282.2, 81.1 281.4, 82.6 281.4 C 85 281.4, 87 283.1, 87 285.7 C 87 288.4, 85 290.9, 80 295 Z" fill="#794230"/>
  <path d="M 128 295 C 123 290.9, 121 288.4, 121 285.7 C 121 283.1, 123 281.4, 125.4 281.4 C 126.9 281.4, 127.7 282.2, 128 283.3 C 128.3 282.2, 129.1 281.4, 130.6 281.4 C 133 281.4, 135 283.1, 135 285.7 C 135 288.4, 133 290.9, 128 295 Z" fill="#794230"/>
  <path d="M 144 295 C 139 290.9, 137 288.4, 137 285.7 C 137 283.1, 139 281.4, 141.4 281.4 C 142.9 281.4, 143.7 282.2, 144 283.3 C 144.3 282.2, 145.1 281.4, 146.6 281.4 C 149 281.4, 151 283.1, 151 285.7 C 151 288.4, 149 290.9, 144 295 Z" fill="#794230"/>
  <path d="M 192 295 C 187 290.9, 185 288.4, 185 285.7 C 185 283.1, 187 281.4, 189.4 281.4 C 190.9 281.4, 191.7 282.2, 192 283.3 C 192.3 282.2, 193.1 281.4, 194.6 281.4 C 197 281.4, 199 283.1, 199 285.7 C 199 288.4, 197 290.9, 192 295 Z" fill="#794230"/>
  <path d="M 208 295 C 203 290.9, 201 288.4, 201 285.7 C 201 283.1, 203 281.4, 205.4 281.4 C 206.9 281.4, 207.7 282.2, 208 283.3 C 208.3 282.2, 209.1 281.4, 210.6 281.4 C 213 281.4, 215 283.1, 215 285.7 C 215 288.4, 213 290.9, 208 295 Z" fill="#794230"/>
  <path d="M 240 295 C 235 290.9, 233 288.4, 233 285.7 C 233 283.1, 235 281.4, 237.4 281.4 C 238.9 281.4, 239.7 282.2, 240 283.3 C 240.3 282.2, 241.1 281.4, 242.6 281.4 C 245 281.4, 247 283.1, 247 285.7 C 247 288.4, 245 290.9, 240 295 Z" fill="#794230"/>
  <path d="M 256 295 C 251 290.9, 249 288.4, 249 285.7 C 249 283.1, 251 281.4, 253.4 281.4 C 254.9 281.4, 255.7 282.2, 256 283.3 C 256.3 282.2, 257.1 281.4, 258.6 281.4 C 261 281.4, 263 283.1, 263 285.7 C 263 288.4, 261 290.9, 256 295 Z" fill="#794230"/>
  <path d="M 304 295 C 299 290.9, 297 288.4, 297 285.7 C 297 283.1, 299 281.4, 301.4 281.4 C 302.9 281.4, 303.7 282.2, 304 283.3 C 304.3 282.2, 305.1 281.4, 306.6 281.4 C 309 281.4, 311 283.1, 311 285.7 C 311 288.4, 309 290.9, 304 295 Z" fill="#794230"/>
  <path d="M 352 295 C 347 290.9, 345 288.4, 345 285.7 C 345 283.1, 347 281.4, 349.4 281.4 C 350.9 281.4, 351.7 282.2, 352 283.3 C 352.3 282.2, 353.1 281.4, 354.6 281.4 C 357 281.4, 359 283.1, 359 285.7 C 359 288.4, 357 290.9, 352 295 Z" fill="#794230"/>
  <path d="M 400 295 C 395 290.9, 393 288.4, 393 285.7 C 393 283.1, 395 281.4, 397.4 281.4 C 398.9 281.4, 399.7 282.2, 400 283.3 C 400.3 282.2, 401.1 281.4, 402.6 281.4 C 405 281.4, 407 283.1, 407 285.7 C 407 288.4, 405 290.9, 400 295 Z" fill="#794230"/>
  <path d="M 432 295 C 427 290.9, 425 288.4, 425 285.7 C 425 283.1, 427 281.4, 429.4 281.4 C 430.9 281.4, 431.7 282.2, 432 283.3 C 432.3 282.2, 433.1 281.4, 434.6 281.4 C 437 281.4, 439 283.1, 439 285.7 C 439 288.4, 437 290.9, 432 295 Z" fill="#794230"/>
  <path d="M 448 295 C 443 290.9, 441 288.4, 441 285.7 C 441 283.1, 443 281.4, 445.4 281.4 C 446.9 281.4, 447.7 282.2, 448 283.3 C 448.3 282.2, 449.1 281.4, 450.6 281.4 C 453 281.4, 455 283.1, 455 285.7 C 455 288.4, 453 290.9, 448 295 Z" fill="#794230"/>
  <path d="M 32 311 C 27 306.9, 25 304.4, 25 301.7 C 25 299.1, 27 297.4, 29.4 297.4 C 30.9 297.4, 31.7 298.2, 32 299.3 C 32.3 298.2, 33.1 297.4, 34.6 297.4 C 37 297.4, 39 299.1, 39 301.7 C 39 304.4, 37 306.9, 32 311 Z" fill="#794230"/>
  <path d="M 48 311 C 43 306.9, 41 304.4, 41 301.7 C 41 299.1, 43 297.4, 45.4 297.4 C 46.9 297.4, 47.7 298.2, 48 299.3 C 48.3 298.2, 49.1 297.4, 50.6 297.4 C 53 297.4, 55 299.1, 55 301.7 C 55 304.4, 53 306.9, 48 311 Z" fill="#794230"/>
  <path d="M 80 311 C 75 306.9, 73 304.4, 73 301.7 C 73 299.1, 75 297.4, 77.4 297.4 C 78.9 297.4, 79.7 298.2, 80 299.3 C 80.3 298.2, 81.1 297.4, 82.6 297.4 C 85 297.4, 87 299.1, 87 301.7 C 87 304.4, 85 306.9, 80 311 Z" fill="#794230"/>
  <path d="M 176 311 C 171 306.9, 169 304.4, 169 301.7 C 169 299.1, 171 297.4, 173.4 297.4 C 174.9 297.4, 175.7 298.2, 176 299.3 C 176.3 298.2, 177.1 297.4, 178.6 297.4 C 181 297.4, 183 299.1, 183 301.7 C 183 304.4, 181 306.9, 176 311 Z" fill="#794230"/>
  <path d="M 192 311 C 187 306.9, 185 304.4, 185 301.7 C 185 299.1, 187 297.4, 189.4 297.4 C 190.9 297.4, 191.7 298.2, 192 299.3 C 192.3 298.2, 193.1 297.4, 194.6 297.4 C 197 297.4, 199 299.1, 199 301.7 C 199 304.4, 197 306.9, 192 311 Z" fill="#794230"/>
  <path d="M 224 311 C 219 306.9, 217 304.4, 217 301.7 C 217 299.1, 219 297.4, 221.4 297.4 C 222.9 297.4, 223.7 298.2, 224 299.3 C 224.3 298.2, 225.1 297.4, 226.6 297.4 C 229 297.4, 231 299.1, 231 301.7 C 231 304.4, 229 306.9, 224 311 Z" fill="#794230"/>
  <path d="M 240 311 C 235 306.9, 233 304.4, 233 301.7 C 233 299.1, 235 297.4, 237.4 297.4 C 238.9 297.4, 239.7 298.2, 240 299.3 C 240.3 298.2, 241.1 297.4, 242.6 297.4 C 245 297.4, 247 299.1, 247 301.7 C 247 304.4, 245 306.9, 240 311 Z" fill="#794230"/>
  <path d="M 288 311 C 283 306.9, 281 304.4, 281 301.7 C 281 299.1, 283 297.4, 285.4 297.4 C 286.9 297.4, 287.7 298.2, 288 299.3 C 288.3 298.2, 289.1 297.4, 290.6 297.4 C 293 297.4, 295 299.1, 295 301.7 C 295 304.4, 293 306.9, 288 311 Z" fill="#794230"/>
  <path d="M 336 311 C 331 306.9, 329 304.4, 329 301.7 C 329 299.1, 331 297.4, 333.4 297.4 C 334.9 297.4, 335.7 298.2, 336 299.3 C 336.3 298.2, 337.1 297.4, 338.6 297.4 C 341 297.4, 343 299.1, 343 301.7 C 343 304.4, 341 306.9, 336 311 Z" fill="#794230"/>
  <path d="M 352 311 C 347 306.9, 345 304.4, 345 301.7 C 345 299.1, 347 297.4, 349.4 297.4 C 350.9 297.4, 351.7 298.2, 352 299.3 C 352.3 298.2, 353.1 297.4, 354.6 297.4 C 357 297.4, 359 299.1, 359 301.7 C 359 304.4, 357 306.9, 352 311 Z" fill="#794230"/>
  <path d="M 368 311 C 363 306.9, 361 304.4, 361 301.7 C 361 299.1, 363 297.4, 365.4 297.4 C 366.9 297.4, 367.7 298.2, 368 299.3 C 368.3 298.2, 369.1 297.4, 370.6 297.4 C 373 297.4, 375 299.1, 375 301.7 C 375 304.4, 373 306.9, 368 311 Z" fill="#794230"/>
  <path d="M 384 311 C 379 306.9, 377 304.4, 377 301.7 C 377 299.1, 379 297.4, 381.4 297.4 C 382.9 297.4, 383.7 298.2, 384 299.3 C 384.3 298.2, 385.1 297.4, 386.6 297.4 C 389 297.4, 391 299.1, 391 301.7 C 391 304.4, 389 306.9, 384 311 Z" fill="#794230"/>
  <path d="M 400 311 C 395 306.9, 393 304.4, 393 301.7 C 393 299.1, 395 297.4, 397.4 297.4 C 398.9 297.4, 399.7 298.2, 400 299.3 C 400.3 298.2, 401.1 297.4, 402.6 297.4 C 405 297.4, 407 299.1, 407 301.7 C 407 304.4, 405 306.9, 400 311 Z" fill="#794230"/>
  <path d="M 416 311 C 411 306.9, 409 304.4, 409 301.7 C 409 299.1, 411 297.4, 413.4 297.4 C 414.9 297.4, 415.7 298.2, 416 299.3 C 416.3 298.2, 417.1 297.4, 418.6 297.4 C 421 297.4, 423 299.1, 423 301.7 C 423 304.4, 421 306.9, 416 311 Z" fill="#794230"/>
  <path d="M 448 311 C 443 306.9, 441 304.4, 441 301.7 C 441 299.1, 443 297.4, 445.4 297.4 C 446.9 297.4, 447.7 298.2, 448 299.3 C 448.3 298.2, 449.1 297.4, 450.6 297.4 C 453 297.4, 455 299.1, 455 301.7 C 455 304.4, 453 306.9, 448 311 Z" fill="#794230"/>
  <path d="M 480 311 C 475 306.9, 473 304.4, 473 301.7 C 473 299.1, 475 297.4, 477.4 297.4 C 478.9 297.4, 479.7 298.2, 480 299.3 C 480.3 298.2, 481.1 297.4, 482.6 297.4 C 485 297.4, 487 299.1, 487 301.7 C 487 304.4, 485 306.9, 480 311 Z" fill="#794230"/>
  <path d="M 32 327 C 27 322.9, 25 320.4, 25 317.7 C 25 315.1, 27 313.4, 29.4 313.4 C 30.9 313.4, 31.7 314.2, 32 315.3 C 32.3 314.2, 33.1 313.4, 34.6 313.4 C 37 313.4, 39 315.1, 39 317.7 C 39 320.4, 37 322.9, 32 327 Z" fill="#794230"/>
  <path d="M 80 327 C 75 322.9, 73 320.4, 73 317.7 C 73 315.1, 75 313.4, 77.4 313.4 C 78.9 313.4, 79.7 314.2, 80 315.3 C 80.3 314.2, 81.1 313.4, 82.6 313.4 C 85 313.4, 87 315.1, 87 317.7 C 87 320.4, 85 322.9, 80 327 Z" fill="#794230"/>
  <path d="M 96 327 C 91 322.9, 89 320.4, 89 317.7 C 89 315.1, 91 313.4, 93.4 313.4 C 94.9 313.4, 95.7 314.2, 96 315.3 C 96.3 314.2, 97.1 313.4, 98.6 313.4 C 101 313.4, 103 315.1, 103 317.7 C 103 320.4, 101 322.9, 96 327 Z" fill="#794230"/>
  <path d="M 112 327 C 107 322.9, 105 320.4, 105 317.7 C 105 315.1, 107 313.4, 109.4 313.4 C 110.9 313.4, 111.7 314.2, 112 315.3 C 112.3 314.2, 113.1 313.4, 114.6 313.4 C 117 313.4, 119 315.1, 119 317.7 C 119 320.4, 117 322.9, 112 327 Z" fill="#794230"/>
  <path d="M 128 327 C 123 322.9, 121 320.4, 121 317.7 C 121 315.1, 123 313.4, 125.4 313.4 C 126.9 313.4, 127.7 314.2, 128 315.3 C 128.3 314.2, 129.1 313.4, 130.6 313.4 C 133 313.4, 135 315.1, 135 317.7 C 135 320.4, 133 322.9, 128 327 Z" fill="#794230"/>
  <path d="M 272 327 C 267 322.9, 265 320.4, 265 317.7 C 265 315.1, 267 313.4, 269.4 313.4 C 270.9 313.4, 271.7 314.2, 272 315.3 C 272.3 314.2, 273.1 313.4, 274.6 313.4 C 277 313.4, 279 315.1, 279 317.7 C 279 320.4, 277 322.9, 272 327 Z" fill="#794230"/>
  <path d="M 288 327 C 283 322.9, 281 320.4, 281 317.7 C 281 315.1, 283 313.4, 285.4 313.4 C 286.9 313.4, 287.7 314.2, 288 315.3 C 288.3 314.2, 289.1 313.4, 290.6 313.4 C 293 313.4, 295 315.1, 295 317.7 C 295 320.4, 293 322.9, 288 327 Z" fill="#794230"/>
  <path d="M 304 327 C 299 322.9, 297 320.4, 297 317.7 C 297 315.1, 299 313.4, 301.4 313.4 C 302.9 313.4, 303.7 314.2, 304 315.3 C 304.3 314.2, 305.1 313.4, 306.6 313.4 C 309 313.4, 311 315.1, 311 317.7 C 311 320.4, 309 322.9, 304 327 Z" fill="#794230"/>
  <path d="M 320 327 C 315 322.9, 313 320.4, 313 317.7 C 313 315.1, 315 313.4, 317.4 313.4 C 318.9 313.4, 319.7 314.2, 320 315.3 C 320.3 314.2, 321.1 313.4, 322.6 313.4 C 325 313.4, 327 315.1, 327 317.7 C 327 320.4, 325 322.9, 320 327 Z" fill="#794230"/>
  <path d="M 400 327 C 395 322.9, 393 320.4, 393 317.7 C 393 315.1, 395 313.4, 397.4 313.4 C 398.9 313.4, 399.7 314.2, 400 315.3 C 400.3 314.2, 401.1 313.4, 402.6 313.4 C 405 313.4, 407 315.1, 407 317.7 C 407 320.4, 405 322.9, 400 327 Z" fill="#794230"/>
  <path d="M 448 327 C 443 322.9, 441 320.4, 441 317.7 C 441 315.1, 443 313.4, 445.4 313.4 C 446.9 313.4, 447.7 314.2, 448 315.3 C 448.3 314.2, 449.1 313.4, 450.6 313.4 C 453 313.4, 455 315.1, 455 317.7 C 455 320.4, 453 322.9, 448 327 Z" fill="#794230"/>
  <path d="M 32 343 C 27 338.9, 25 336.4, 25 333.7 C 25 331.1, 27 329.4, 29.4 329.4 C 30.9 329.4, 31.7 330.2, 32 331.3 C 32.3 330.2, 33.1 329.4, 34.6 329.4 C 37 329.4, 39 331.1, 39 333.7 C 39 336.4, 37 338.9, 32 343 Z" fill="#794230"/>
  <path d="M 64 343 C 59 338.9, 57 336.4, 57 333.7 C 57 331.1, 59 329.4, 61.4 329.4 C 62.9 329.4, 63.7 330.2, 64 331.3 C 64.3 330.2, 65.1 329.4, 66.6 329.4 C 69 329.4, 71 331.1, 71 333.7 C 71 336.4, 69 338.9, 64 343 Z" fill="#794230"/>
  <path d="M 96 343 C 91 338.9, 89 336.4, 89 333.7 C 89 331.1, 91 329.4, 93.4 329.4 C 94.9 329.4, 95.7 330.2, 96 331.3 C 96.3 330.2, 97.1 329.4, 98.6 329.4 C 101 329.4, 103 331.1, 103 333.7 C 103 336.4, 101 338.9, 96 343 Z" fill="#794230"/>
  <path d="M 112 343 C 107 338.9, 105 336.4, 105 333.7 C 105 331.1, 107 329.4, 109.4 329.4 C 110.9 329.4, 111.7 330.2, 112 331.3 C 112.3 330.2, 113.1 329.4, 114.6 329.4 C 117 329.4, 119 331.1, 119 333.7 C 119 336.4, 117 338.9, 112 343 Z" fill="#794230"/>
  <path d="M 144 343 C 139 338.9, 137 336.4, 137 333.7 C 137 331.1, 139 329.4, 141.4 329.4 C 142.9 329.4, 143.7 330.2, 144 331.3 C 144.3 330.2, 145.1 329.4, 146.6 329.4 C 149 329.4, 151 331.1, 151 333.7 C 151 336.4, 149 338.9, 144 343 Z" fill="#794230"/>
  <path d="M 160 343 C 155 338.9, 153 336.4, 153 333.7 C 153 331.1, 155 329.4, 157.4 329.4 C 158.9 329.4, 159.7 330.2, 160 331.3 C 160.3 330.2, 161.1 329.4, 162.6 329.4 C 165 329.4, 167 331.1, 167 333.7 C 167 336.4, 165 338.9, 160 343 Z" fill="#794230"/>
  <path d="M 176 343 C 171 338.9, 169 336.4, 169 333.7 C 169 331.1, 171 329.4, 173.4 329.4 C 174.9 329.4, 175.7 330.2, 176 331.3 C 176.3 330.2, 177.1 329.4, 178.6 329.4 C 181 329.4, 183 331.1, 183 333.7 C 183 336.4, 181 338.9, 176 343 Z" fill="#794230"/>
  <path d="M 192 343 C 187 338.9, 185 336.4, 185 333.7 C 185 331.1, 187 329.4, 189.4 329.4 C 190.9 329.4, 191.7 330.2, 192 331.3 C 192.3 330.2, 193.1 329.4, 194.6 329.4 C 197 329.4, 199 331.1, 199 333.7 C 199 336.4, 197 338.9, 192 343 Z" fill="#794230"/>
  <path d="M 224 343 C 219 338.9, 217 336.4, 217 333.7 C 217 331.1, 219 329.4, 221.4 329.4 C 222.9 329.4, 223.7 330.2, 224 331.3 C 224.3 330.2, 225.1 329.4, 226.6 329.4 C 229 329.4, 231 331.1, 231 333.7 C 231 336.4, 229 338.9, 224 343 Z" fill="#794230"/>
  <path d="M 256 343 C 251 338.9, 249 336.4, 249 333.7 C 249 331.1, 251 329.4, 253.4 329.4 C 254.9 329.4, 255.7 330.2, 256 331.3 C 256.3 330.2, 257.1 329.4, 258.6 329.4 C 261 329.4, 263 331.1, 263 333.7 C 263 336.4, 261 338.9, 256 343 Z" fill="#794230"/>
  <path d="M 288 343 C 283 338.9, 281 336.4, 281 333.7 C 281 331.1, 283 329.4, 285.4 329.4 C 286.9 329.4, 287.7 330.2, 288 331.3 C 288.3 330.2, 289.1 329.4, 290.6 329.4 C 293 329.4, 295 331.1, 295 333.7 C 295 336.4, 293 338.9, 288 343 Z" fill="#794230"/>
  <path d="M 384 343 C 379 338.9, 377 336.4, 377 333.7 C 377 331.1, 379 329.4, 381.4 329.4 C 382.9 329.4, 383.7 330.2, 384 331.3 C 384.3 330.2, 385.1 329.4, 386.6 329.4 C 389 329.4, 391 331.1, 391 333.7 C 391 336.4, 389 338.9, 384 343 Z" fill="#794230"/>
  <path d="M 416 343 C 411 338.9, 409 336.4, 409 333.7 C 409 331.1, 411 329.4, 413.4 329.4 C 414.9 329.4, 415.7 330.2, 416 331.3 C 416.3 330.2, 417.1 329.4, 418.6 329.4 C 421 329.4, 423 331.1, 423 333.7 C 423 336.4, 421 338.9, 416 343 Z" fill="#794230"/>
  <path d="M 464 343 C 459 338.9, 457 336.4, 457 333.7 C 457 331.1, 459 329.4, 461.4 329.4 C 462.9 329.4, 463.7 330.2, 464 331.3 C 464.3 330.2, 465.1 329.4, 466.6 329.4 C 469 329.4, 471 331.1, 471 333.7 C 471 336.4, 469 338.9, 464 343 Z" fill="#794230"/>
  <path d="M 32 359 C 27 354.9, 25 352.4, 25 349.7 C 25 347.1, 27 345.4, 29.4 345.4 C 30.9 345.4, 31.7 346.2, 32 347.3 C 32.3 346.2, 33.1 345.4, 34.6 345.4 C 37 345.4, 39 347.1, 39 349.7 C 39 352.4, 37 354.9, 32 359 Z" fill="#794230"/>
  <path d="M 112 359 C 107 354.9, 105 352.4, 105 349.7 C 105 347.1, 107 345.4, 109.4 345.4 C 110.9 345.4, 111.7 346.2, 112 347.3 C 112.3 346.2, 113.1 345.4, 114.6 345.4 C 117 345.4, 119 347.1, 119 349.7 C 119 352.4, 117 354.9, 112 359 Z" fill="#794230"/>
  <path d="M 128 359 C 123 354.9, 121 352.4, 121 349.7 C 121 347.1, 123 345.4, 125.4 345.4 C 126.9 345.4, 127.7 346.2, 128 347.3 C 128.3 346.2, 129.1 345.4, 130.6 345.4 C 133 345.4, 135 347.1, 135 349.7 C 135 352.4, 133 354.9, 128 359 Z" fill="#794230"/>
  <path d="M 160 359 C 155 354.9, 153 352.4, 153 349.7 C 153 347.1, 155 345.4, 157.4 345.4 C 158.9 345.4, 159.7 346.2, 160 347.3 C 160.3 346.2, 161.1 345.4, 162.6 345.4 C 165 345.4, 167 347.1, 167 349.7 C 167 352.4, 165 354.9, 160 359 Z" fill="#794230"/>
  <path d="M 176 359 C 171 354.9, 169 352.4, 169 349.7 C 169 347.1, 171 345.4, 173.4 345.4 C 174.9 345.4, 175.7 346.2, 176 347.3 C 176.3 346.2, 177.1 345.4, 178.6 345.4 C 181 345.4, 183 347.1, 183 349.7 C 183 352.4, 181 354.9, 176 359 Z" fill="#794230"/>
  <path d="M 192 359 C 187 354.9, 185 352.4, 185 349.7 C 185 347.1, 187 345.4, 189.4 345.4 C 190.9 345.4, 191.7 346.2, 192 347.3 C 192.3 346.2, 193.1 345.4, 194.6 345.4 C 197 345.4, 199 347.1, 199 349.7 C 199 352.4, 197 354.9, 192 359 Z" fill="#794230"/>
  <path d="M 224 359 C 219 354.9, 217 352.4, 217 349.7 C 217 347.1, 219 345.4, 221.4 345.4 C 222.9 345.4, 223.7 346.2, 224 347.3 C 224.3 346.2, 225.1 345.4, 226.6 345.4 C 229 345.4, 231 347.1, 231 349.7 C 231 352.4, 229 354.9, 224 359 Z" fill="#794230"/>
  <path d="M 240 359 C 235 354.9, 233 352.4, 233 349.7 C 233 347.1, 235 345.4, 237.4 345.4 C 238.9 345.4, 239.7 346.2, 240 347.3 C 240.3 346.2, 241.1 345.4, 242.6 345.4 C 245 345.4, 247 347.1, 247 349.7 C 247 352.4, 245 354.9, 240 359 Z" fill="#794230"/>
  <path d="M 256 359 C 251 354.9, 249 352.4, 249 349.7 C 249 347.1, 251 345.4, 253.4 345.4 C 254.9 345.4, 255.7 346.2, 256 347.3 C 256.3 346.2, 257.1 345.4, 258.6 345.4 C 261 345.4, 263 347.1, 263 349.7 C 263 352.4, 261 354.9, 256 359 Z" fill="#794230"/>
  <path d="M 304 359 C 299 354.9, 297 352.4, 297 349.7 C 297 347.1, 299 345.4, 301.4 345.4 C 302.9 345.4, 303.7 346.2, 304 347.3 C 304.3 346.2, 305.1 345.4, 306.6 345.4 C 309 345.4, 311 347.1, 311 349.7 C 311 352.4, 309 354.9, 304 359 Z" fill="#794230"/>
  <path d="M 336 359 C 331 354.9, 329 352.4, 329 349.7 C 329 347.1, 331 345.4, 333.4 345.4 C 334.9 345.4, 335.7 346.2, 336 347.3 C 336.3 346.2, 337.1 345.4, 338.6 345.4 C 341 345.4, 343 347.1, 343 349.7 C 343 352.4, 341 354.9, 336 359 Z" fill="#794230"/>
  <path d="M 352 359 C 347 354.9, 345 352.4, 345 349.7 C 345 347.1, 347 345.4, 349.4 345.4 C 350.9 345.4, 351.7 346.2, 352 347.3 C 352.3 346.2, 353.1 345.4, 354.6 345.4 C 357 345.4, 359 347.1, 359 349.7 C 359 352.4, 357 354.9, 352 359 Z" fill="#794230"/>
  <path d="M 368 359 C 363 354.9, 361 352.4, 361 349.7 C 361 347.1, 363 345.4, 365.4 345.4 C 366.9 345.4, 367.7 346.2, 368 347.3 C 368.3 346.2, 369.1 345.4, 370.6 345.4 C 373 345.4, 375 347.1, 375 349.7 C 375 352.4, 373 354.9, 368 359 Z" fill="#794230"/>
  <path d="M 384 359 C 379 354.9, 377 352.4, 377 349.7 C 377 347.1, 379 345.4, 381.4 345.4 C 382.9 345.4, 383.7 346.2, 384 347.3 C 384.3 346.2, 385.1 345.4, 386.6 345.4 C 389 345.4, 391 347.1, 391 349.7 C 391 352.4, 389 354.9, 384 359 Z" fill="#794230"/>
  <path d="M 400 359 C 395 354.9, 393 352.4, 393 349.7 C 393 347.1, 395 345.4, 397.4 345.4 C 398.9 345.4, 399.7 346.2, 400 347.3 C 400.3 346.2, 401.1 345.4, 402.6 345.4 C 405 345.4, 407 347.1, 407 349.7 C 407 352.4, 405 354.9, 400 359 Z" fill="#794230"/>
  <path d="M 416 359 C 411 354.9, 409 352.4, 409 349.7 C 409 347.1, 411 345.4, 413.4 345.4 C 414.9 345.4, 415.7 346.2, 416 347.3 C 416.3 346.2, 417.1 345.4, 418.6 345.4 C 421 345.4, 423 347.1, 423 349.7 C 423 352.4, 421 354.9, 416 359 Z" fill="#794230"/>
  <path d="M 448 359 C 443 354.9, 441 352.4, 441 349.7 C 441 347.1, 443 345.4, 445.4 345.4 C 446.9 345.4, 447.7 346.2, 448 347.3 C 448.3 346.2, 449.1 345.4, 450.6 345.4 C 453 345.4, 455 347.1, 455 349.7 C 455 352.4, 453 354.9, 448 359 Z" fill="#794230"/>
  <path d="M 464 359 C 459 354.9, 457 352.4, 457 349.7 C 457 347.1, 459 345.4, 461.4 345.4 C 462.9 345.4, 463.7 346.2, 464 347.3 C 464.3 346.2, 465.1 345.4, 466.6 345.4 C 469 345.4, 471 347.1, 471 349.7 C 471 352.4, 469 354.9, 464 359 Z" fill="#794230"/>
  <path d="M 480 359 C 475 354.9, 473 352.4, 473 349.7 C 473 347.1, 475 345.4, 477.4 345.4 C 478.9 345.4, 479.7 346.2, 480 347.3 C 480.3 346.2, 481.1 345.4, 482.6 345.4 C 485 345.4, 487 347.1, 487 349.7 C 487 352.4, 485 354.9, 480 359 Z" fill="#794230"/>
  <path d="M 160 375 C 155 370.9, 153 368.4, 153 365.7 C 153 363.1, 155 361.4, 157.4 361.4 C 158.9 361.4, 159.7 362.2, 160 363.3 C 160.3 362.2, 161.1 361.4, 162.6 361.4 C 165 361.4, 167 363.1, 167 365.7 C 167 368.4, 165 370.9, 160 375 Z" fill="#794230"/>
  <path d="M 176 375 C 171 370.9, 169 368.4, 169 365.7 C 169 363.1, 171 361.4, 173.4 361.4 C 174.9 361.4, 175.7 362.2, 176 363.3 C 176.3 362.2, 177.1 361.4, 178.6 361.4 C 181 361.4, 183 363.1, 183 365.7 C 183 368.4, 181 370.9, 176 375 Z" fill="#794230"/>
  <path d="M 240 375 C 235 370.9, 233 368.4, 233 365.7 C 233 363.1, 235 361.4, 237.4 361.4 C 238.9 361.4, 239.7 362.2, 240 363.3 C 240.3 362.2, 241.1 361.4, 242.6 361.4 C 245 361.4, 247 363.1, 247 365.7 C 247 368.4, 245 370.9, 240 375 Z" fill="#794230"/>
  <path d="M 288 375 C 283 370.9, 281 368.4, 281 365.7 C 281 363.1, 283 361.4, 285.4 361.4 C 286.9 361.4, 287.7 362.2, 288 363.3 C 288.3 362.2, 289.1 361.4, 290.6 361.4 C 293 361.4, 295 363.1, 295 365.7 C 295 368.4, 293 370.9, 288 375 Z" fill="#794230"/>
  <path d="M 352 375 C 347 370.9, 345 368.4, 345 365.7 C 345 363.1, 347 361.4, 349.4 361.4 C 350.9 361.4, 351.7 362.2, 352 363.3 C 352.3 362.2, 353.1 361.4, 354.6 361.4 C 357 361.4, 359 363.1, 359 365.7 C 359 368.4, 357 370.9, 352 375 Z" fill="#794230"/>
  <path d="M 416 375 C 411 370.9, 409 368.4, 409 365.7 C 409 363.1, 411 361.4, 413.4 361.4 C 414.9 361.4, 415.7 362.2, 416 363.3 C 416.3 362.2, 417.1 361.4, 418.6 361.4 C 421 361.4, 423 363.1, 423 365.7 C 423 368.4, 421 370.9, 416 375 Z" fill="#794230"/>
  <path d="M 432 375 C 427 370.9, 425 368.4, 425 365.7 C 425 363.1, 427 361.4, 429.4 361.4 C 430.9 361.4, 431.7 362.2, 432 363.3 C 432.3 362.2, 433.1 361.4, 434.6 361.4 C 437 361.4, 439 363.1, 439 365.7 C 439 368.4, 437 370.9, 432 375 Z" fill="#794230"/>
  <path d="M 448 375 C 443 370.9, 441 368.4, 441 365.7 C 441 363.1, 443 361.4, 445.4 361.4 C 446.9 361.4, 447.7 362.2, 448 363.3 C 448.3 362.2, 449.1 361.4, 450.6 361.4 C 453 361.4, 455 363.1, 455 365.7 C 455 368.4, 453 370.9, 448 375 Z" fill="#794230"/>
  <path d="M 464 375 C 459 370.9, 457 368.4, 457 365.7 C 457 363.1, 459 361.4, 461.4 361.4 C 462.9 361.4, 463.7 362.2, 464 363.3 C 464.3 362.2, 465.1 361.4, 466.6 361.4 C 469 361.4, 471 363.1, 471 365.7 C 471 368.4, 469 370.9, 464 375 Z" fill="#794230"/>
  <path d="M 480 375 C 475 370.9, 473 368.4, 473 365.7 C 473 363.1, 475 361.4, 477.4 361.4 C 478.9 361.4, 479.7 362.2, 480 363.3 C 480.3 362.2, 481.1 361.4, 482.6 361.4 C 485 361.4, 487 363.1, 487 365.7 C 487 368.4, 485 370.9, 480 375 Z" fill="#794230"/>
  <path d="M 160 391 C 155 386.9, 153 384.4, 153 381.7 C 153 379.1, 155 377.4, 157.4 377.4 C 158.9 377.4, 159.7 378.2, 160 379.3 C 160.3 378.2, 161.1 377.4, 162.6 377.4 C 165 377.4, 167 379.1, 167 381.7 C 167 384.4, 165 386.9, 160 391 Z" fill="#794230"/>
  <path d="M 192 391 C 187 386.9, 185 384.4, 185 381.7 C 185 379.1, 187 377.4, 189.4 377.4 C 190.9 377.4, 191.7 378.2, 192 379.3 C 192.3 378.2, 193.1 377.4, 194.6 377.4 C 197 377.4, 199 379.1, 199 381.7 C 199 384.4, 197 386.9, 192 391 Z" fill="#794230"/>
  <path d="M 208 391 C 203 386.9, 201 384.4, 201 381.7 C 201 379.1, 203 377.4, 205.4 377.4 C 206.9 377.4, 207.7 378.2, 208 379.3 C 208.3 378.2, 209.1 377.4, 210.6 377.4 C 213 377.4, 215 379.1, 215 381.7 C 215 384.4, 213 386.9, 208 391 Z" fill="#794230"/>
  <path d="M 224 391 C 219 386.9, 217 384.4, 217 381.7 C 217 379.1, 219 377.4, 221.4 377.4 C 222.9 377.4, 223.7 378.2, 224 379.3 C 224.3 378.2, 225.1 377.4, 226.6 377.4 C 229 377.4, 231 379.1, 231 381.7 C 231 384.4, 229 386.9, 224 391 Z" fill="#794230"/>
  <path d="M 240 391 C 235 386.9, 233 384.4, 233 381.7 C 233 379.1, 235 377.4, 237.4 377.4 C 238.9 377.4, 239.7 378.2, 240 379.3 C 240.3 378.2, 241.1 377.4, 242.6 377.4 C 245 377.4, 247 379.1, 247 381.7 C 247 384.4, 245 386.9, 240 391 Z" fill="#794230"/>
  <path d="M 256 391 C 251 386.9, 249 384.4, 249 381.7 C 249 379.1, 251 377.4, 253.4 377.4 C 254.9 377.4, 255.7 378.2, 256 379.3 C 256.3 378.2, 257.1 377.4, 258.6 377.4 C 261 377.4, 263 379.1, 263 381.7 C 263 384.4, 261 386.9, 256 391 Z" fill="#794230"/>
  <path d="M 272 391 C 267 386.9, 265 384.4, 265 381.7 C 265 379.1, 267 377.4, 269.4 377.4 C 270.9 377.4, 271.7 378.2, 272 379.3 C 272.3 378.2, 273.1 377.4, 274.6 377.4 C 277 377.4, 279 379.1, 279 381.7 C 279 384.4, 277 386.9, 272 391 Z" fill="#794230"/>
  <path d="M 288 391 C 283 386.9, 281 384.4, 281 381.7 C 281 379.1, 283 377.4, 285.4 377.4 C 286.9 377.4, 287.7 378.2, 288 379.3 C 288.3 378.2, 289.1 377.4, 290.6 377.4 C 293 377.4, 295 379.1, 295 381.7 C 295 384.4, 293 386.9, 288 391 Z" fill="#794230"/>
  <path d="M 336 391 C 331 386.9, 329 384.4, 329 381.7 C 329 379.1, 331 377.4, 333.4 377.4 C 334.9 377.4, 335.7 378.2, 336 379.3 C 336.3 378.2, 337.1 377.4, 338.6 377.4 C 341 377.4, 343 379.1, 343 381.7 C 343 384.4, 341 386.9, 336 391 Z" fill="#794230"/>
  <path d="M 352 391 C 347 386.9, 345 384.4, 345 381.7 C 345 379.1, 347 377.4, 349.4 377.4 C 350.9 377.4, 351.7 378.2, 352 379.3 C 352.3 378.2, 353.1 377.4, 354.6 377.4 C 357 377.4, 359 379.1, 359 381.7 C 359 384.4, 357 386.9, 352 391 Z" fill="#794230"/>
  <path d="M 384 391 C 379 386.9, 377 384.4, 377 381.7 C 377 379.1, 379 377.4, 381.4 377.4 C 382.9 377.4, 383.7 378.2, 384 379.3 C 384.3 378.2, 385.1 377.4, 386.6 377.4 C 389 377.4, 391 379.1, 391 381.7 C 391 384.4, 389 386.9, 384 391 Z" fill="#794230"/>
  <path d="M 416 391 C 411 386.9, 409 384.4, 409 381.7 C 409 379.1, 411 377.4, 413.4 377.4 C 414.9 377.4, 415.7 378.2, 416 379.3 C 416.3 378.2, 417.1 377.4, 418.6 377.4 C 421 377.4, 423 379.1, 423 381.7 C 423 384.4, 421 386.9, 416 391 Z" fill="#794230"/>
  <path d="M 432 391 C 427 386.9, 425 384.4, 425 381.7 C 425 379.1, 427 377.4, 429.4 377.4 C 430.9 377.4, 431.7 378.2, 432 379.3 C 432.3 378.2, 433.1 377.4, 434.6 377.4 C 437 377.4, 439 379.1, 439 381.7 C 439 384.4, 437 386.9, 432 391 Z" fill="#794230"/>
  <path d="M 448 391 C 443 386.9, 441 384.4, 441 381.7 C 441 379.1, 443 377.4, 445.4 377.4 C 446.9 377.4, 447.7 378.2, 448 379.3 C 448.3 378.2, 449.1 377.4, 450.6 377.4 C 453 377.4, 455 379.1, 455 381.7 C 455 384.4, 453 386.9, 448 391 Z" fill="#794230"/>
  <path d="M 176 407 C 171 402.9, 169 400.4, 169 397.7 C 169 395.1, 171 393.4, 173.4 393.4 C 174.9 393.4, 175.7 394.2, 176 395.3 C 176.3 394.2, 177.1 393.4, 178.6 393.4 C 181 393.4, 183 395.1, 183 397.7 C 183 400.4, 181 402.9, 176 407 Z" fill="#794230"/>
  <path d="M 208 407 C 203 402.9, 201 400.4, 201 397.7 C 201 395.1, 203 393.4, 205.4 393.4 C 206.9 393.4, 207.7 394.2, 208 395.3 C 208.3 394.2, 209.1 393.4, 210.6 393.4 C 213 393.4, 215 395.1, 215 397.7 C 215 400.4, 213 402.9, 208 407 Z" fill="#794230"/>
  <path d="M 272 407 C 267 402.9, 265 400.4, 265 397.7 C 265 395.1, 267 393.4, 269.4 393.4 C 270.9 393.4, 271.7 394.2, 272 395.3 C 272.3 394.2, 273.1 393.4, 274.6 393.4 C 277 393.4, 279 395.1, 279 397.7 C 279 400.4, 277 402.9, 272 407 Z" fill="#794230"/>
  <path d="M 288 407 C 283 402.9, 281 400.4, 281 397.7 C 281 395.1, 283 393.4, 285.4 393.4 C 286.9 393.4, 287.7 394.2, 288 395.3 C 288.3 394.2, 289.1 393.4, 290.6 393.4 C 293 393.4, 295 395.1, 295 397.7 C 295 400.4, 293 402.9, 288 407 Z" fill="#794230"/>
  <path d="M 320 407 C 315 402.9, 313 400.4, 313 397.7 C 313 395.1, 315 393.4, 317.4 393.4 C 318.9 393.4, 319.7 394.2, 320 395.3 C 320.3 394.2, 321.1 393.4, 322.6 393.4 C 325 393.4, 327 395.1, 327 397.7 C 327 400.4, 325 402.9, 320 407 Z" fill="#794230"/>
  <path d="M 336 407 C 331 402.9, 329 400.4, 329 397.7 C 329 395.1, 331 393.4, 333.4 393.4 C 334.9 393.4, 335.7 394.2, 336 395.3 C 336.3 394.2, 337.1 393.4, 338.6 393.4 C 341 393.4, 343 395.1, 343 397.7 C 343 400.4, 341 402.9, 336 407 Z" fill="#794230"/>
  <path d="M 352 407 C 347 402.9, 345 400.4, 345 397.7 C 345 395.1, 347 393.4, 349.4 393.4 C 350.9 393.4, 351.7 394.2, 352 395.3 C 352.3 394.2, 353.1 393.4, 354.6 393.4 C 357 393.4, 359 395.1, 359 397.7 C 359 400.4, 357 402.9, 352 407 Z" fill="#794230"/>
  <path d="M 416 407 C 411 402.9, 409 400.4, 409 397.7 C 409 395.1, 411 393.4, 413.4 393.4 C 414.9 393.4, 415.7 394.2, 416 395.3 C 416.3 394.2, 417.1 393.4, 418.6 393.4 C 421 393.4, 423 395.1, 423 397.7 C 423 400.4, 421 402.9, 416 407 Z" fill="#794230"/>
  <path d="M 464 407 C 459 402.9, 457 400.4, 457 397.7 C 457 395.1, 459 393.4, 461.4 393.4 C 462.9 393.4, 463.7 394.2, 464 395.3 C 464.3 394.2, 465.1 393.4, 466.6 393.4 C 469 393.4, 471 395.1, 471 397.7 C 471 400.4, 469 402.9, 464 407 Z" fill="#794230"/>
  <path d="M 160 423 C 155 418.9, 153 416.4, 153 413.7 C 153 411.1, 155 409.4, 157.4 409.4 C 158.9 409.4, 159.7 410.2, 160 411.3 C 160.3 410.2, 161.1 409.4, 162.6 409.4 C 165 409.4, 167 411.1, 167 413.7 C 167 416.4, 165 418.9, 160 423 Z" fill="#794230"/>
  <path d="M 192 423 C 187 418.9, 185 416.4, 185 413.7 C 185 411.1, 187 409.4, 189.4 409.4 C 190.9 409.4, 191.7 410.2, 192 411.3 C 192.3 410.2, 193.1 409.4, 194.6 409.4 C 197 409.4, 199 411.1, 199 413.7 C 199 416.4, 197 418.9, 192 423 Z" fill="#794230"/>
  <path d="M 208 423 C 203 418.9, 201 416.4, 201 413.7 C 201 411.1, 203 409.4, 205.4 409.4 C 206.9 409.4, 207.7 410.2, 208 411.3 C 208.3 410.2, 209.1 409.4, 210.6 409.4 C 213 409.4, 215 411.1, 215 413.7 C 215 416.4, 213 418.9, 208 423 Z" fill="#794230"/>
  <path d="M 224 423 C 219 418.9, 217 416.4, 217 413.7 C 217 411.1, 219 409.4, 221.4 409.4 C 222.9 409.4, 223.7 410.2, 224 411.3 C 224.3 410.2, 225.1 409.4, 226.6 409.4 C 229 409.4, 231 411.1, 231 413.7 C 231 416.4, 229 418.9, 224 423 Z" fill="#794230"/>
  <path d="M 240 423 C 235 418.9, 233 416.4, 233 413.7 C 233 411.1, 235 409.4, 237.4 409.4 C 238.9 409.4, 239.7 410.2, 240 411.3 C 240.3 410.2, 241.1 409.4, 242.6 409.4 C 245 409.4, 247 411.1, 247 413.7 C 247 416.4, 245 418.9, 240 423 Z" fill="#794230"/>
  <path d="M 256 423 C 251 418.9, 249 416.4, 249 413.7 C 249 411.1, 251 409.4, 253.4 409.4 C 254.9 409.4, 255.7 410.2, 256 411.3 C 256.3 410.2, 257.1 409.4, 258.6 409.4 C 261 409.4, 263 411.1, 263 413.7 C 263 416.4, 261 418.9, 256 423 Z" fill="#794230"/>
  <path d="M 304 423 C 299 418.9, 297 416.4, 297 413.7 C 297 411.1, 299 409.4, 301.4 409.4 C 302.9 409.4, 303.7 410.2, 304 411.3 C 304.3 410.2, 305.1 409.4, 306.6 409.4 C 309 409.4, 311 411.1, 311 413.7 C 311 416.4, 309 418.9, 304 423 Z" fill="#794230"/>
  <path d="M 352 423 C 347 418.9, 345 416.4, 345 413.7 C 345 411.1, 347 409.4, 349.4 409.4 C 350.9 409.4, 351.7 410.2, 352 411.3 C 352.3 410.2, 353.1 409.4, 354.6 409.4 C 357 409.4, 359 411.1, 359 413.7 C 359 416.4, 357 418.9, 352 423 Z" fill="#794230"/>
  <path d="M 368 423 C 363 418.9, 361 416.4, 361 413.7 C 361 411.1, 363 409.4, 365.4 409.4 C 366.9 409.4, 367.7 410.2, 368 411.3 C 368.3 410.2, 369.1 409.4, 370.6 409.4 C 373 409.4, 375 411.1, 375 413.7 C 375 416.4, 373 418.9, 368 423 Z" fill="#794230"/>
  <path d="M 384 423 C 379 418.9, 377 416.4, 377 413.7 C 377 411.1, 379 409.4, 381.4 409.4 C 382.9 409.4, 383.7 410.2, 384 411.3 C 384.3 410.2, 385.1 409.4, 386.6 409.4 C 389 409.4, 391 411.1, 391 413.7 C 391 416.4, 389 418.9, 384 423 Z" fill="#794230"/>
  <path d="M 400 423 C 395 418.9, 393 416.4, 393 413.7 C 393 411.1, 395 409.4, 397.4 409.4 C 398.9 409.4, 399.7 410.2, 400 411.3 C 400.3 410.2, 401.1 409.4, 402.6 409.4 C 405 409.4, 407 411.1, 407 413.7 C 407 416.4, 405 418.9, 400 423 Z" fill="#794230"/>
  <path d="M 416 423 C 411 418.9, 409 416.4, 409 413.7 C 409 411.1, 411 409.4, 413.4 409.4 C 414.9 409.4, 415.7 410.2, 416 411.3 C 416.3 410.2, 417.1 409.4, 418.6 409.4 C 421 409.4, 423 411.1, 423 413.7 C 423 416.4, 421 418.9, 416 423 Z" fill="#794230"/>
  <path d="M 448 423 C 443 418.9, 441 416.4, 441 413.7 C 441 411.1, 443 409.4, 445.4 409.4 C 446.9 409.4, 447.7 410.2, 448 411.3 C 448.3 410.2, 449.1 409.4, 450.6 409.4 C 453 409.4, 455 411.1, 455 413.7 C 455 416.4, 453 418.9, 448 423 Z" fill="#794230"/>
  <path d="M 480 423 C 475 418.9, 473 416.4, 473 413.7 C 473 411.1, 475 409.4, 477.4 409.4 C 478.9 409.4, 479.7 410.2, 480 411.3 C 480.3 410.2, 481.1 409.4, 482.6 409.4 C 485 409.4, 487 411.1, 487 413.7 C 487 416.4, 485 418.9, 480 423 Z" fill="#794230"/>
  <path d="M 160 439 C 155 434.9, 153 432.4, 153 429.7 C 153 427.1, 155 425.4, 157.4 425.4 C 158.9 425.4, 159.7 426.2, 160 427.3 C 160.3 426.2, 161.1 425.4, 162.6 425.4 C 165 425.4, 167 427.1, 167 429.7 C 167 432.4, 165 434.9, 160 439 Z" fill="#794230"/>
  <path d="M 176 439 C 171 434.9, 169 432.4, 169 429.7 C 169 427.1, 171 425.4, 173.4 425.4 C 174.9 425.4, 175.7 426.2, 176 427.3 C 176.3 426.2, 177.1 425.4, 178.6 425.4 C 181 425.4, 183 427.1, 183 429.7 C 183 432.4, 181 434.9, 176 439 Z" fill="#794230"/>
  <path d="M 224 439 C 219 434.9, 217 432.4, 217 429.7 C 217 427.1, 219 425.4, 221.4 425.4 C 222.9 425.4, 223.7 426.2, 224 427.3 C 224.3 426.2, 225.1 425.4, 226.6 425.4 C 229 425.4, 231 427.1, 231 429.7 C 231 432.4, 229 434.9, 224 439 Z" fill="#794230"/>
  <path d="M 304 439 C 299 434.9, 297 432.4, 297 429.7 C 297 427.1, 299 425.4, 301.4 425.4 C 302.9 425.4, 303.7 426.2, 304 427.3 C 304.3 426.2, 305.1 425.4, 306.6 425.4 C 309 425.4, 311 427.1, 311 429.7 C 311 432.4, 309 434.9, 304 439 Z" fill="#794230"/>
  <path d="M 400 439 C 395 434.9, 393 432.4, 393 429.7 C 393 427.1, 395 425.4, 397.4 425.4 C 398.9 425.4, 399.7 426.2, 400 427.3 C 400.3 426.2, 401.1 425.4, 402.6 425.4 C 405 425.4, 407 427.1, 407 429.7 C 407 432.4, 405 434.9, 400 439 Z" fill="#794230"/>
  <path d="M 432 439 C 427 434.9, 425 432.4, 425 429.7 C 425 427.1, 427 425.4, 429.4 425.4 C 430.9 425.4, 431.7 426.2, 432 427.3 C 432.3 426.2, 433.1 425.4, 434.6 425.4 C 437 425.4, 439 427.1, 439 429.7 C 439 432.4, 437 434.9, 432 439 Z" fill="#794230"/>
  <path d="M 448 439 C 443 434.9, 441 432.4, 441 429.7 C 441 427.1, 443 425.4, 445.4 425.4 C 446.9 425.4, 447.7 426.2, 448 427.3 C 448.3 426.2, 449.1 425.4, 450.6 425.4 C 453 425.4, 455 427.1, 455 429.7 C 455 432.4, 453 434.9, 448 439 Z" fill="#794230"/>
  <path d="M 464 439 C 459 434.9, 457 432.4, 457 429.7 C 457 427.1, 459 425.4, 461.4 425.4 C 462.9 425.4, 463.7 426.2, 464 427.3 C 464.3 426.2, 465.1 425.4, 466.6 425.4 C 469 425.4, 471 427.1, 471 429.7 C 471 432.4, 469 434.9, 464 439 Z" fill="#794230"/>
  <path d="M 480 439 C 475 434.9, 473 432.4, 473 429.7 C 473 427.1, 475 425.4, 477.4 425.4 C 478.9 425.4, 479.7 426.2, 480 427.3 C 480.3 426.2, 481.1 425.4, 482.6 425.4 C 485 425.4, 487 427.1, 487 429.7 C 487 432.4, 485 434.9, 480 439 Z" fill="#794230"/>
  <path d="M 160 455 C 155 450.9, 153 448.4, 153 445.7 C 153 443.1, 155 441.4, 157.4 441.4 C 158.9 441.4, 159.7 442.2, 160 443.3 C 160.3 442.2, 161.1 441.4, 162.6 441.4 C 165 441.4, 167 443.1, 167 445.7 C 167 448.4, 165 450.9, 160 455 Z" fill="#794230"/>
  <path d="M 240 455 C 235 450.9, 233 448.4, 233 445.7 C 233 443.1, 235 441.4, 237.4 441.4 C 238.9 441.4, 239.7 442.2, 240 443.3 C 240.3 442.2, 241.1 441.4, 242.6 441.4 C 245 441.4, 247 443.1, 247 445.7 C 247 448.4, 245 450.9, 240 455 Z" fill="#794230"/>
  <path d="M 256 455 C 251 450.9, 249 448.4, 249 445.7 C 249 443.1, 251 441.4, 253.4 441.4 C 254.9 441.4, 255.7 442.2, 256 443.3 C 256.3 442.2, 257.1 441.4, 258.6 441.4 C 261 441.4, 263 443.1, 263 445.7 C 263 448.4, 261 450.9, 256 455 Z" fill="#794230"/>
  <path d="M 272 455 C 267 450.9, 265 448.4, 265 445.7 C 265 443.1, 267 441.4, 269.4 441.4 C 270.9 441.4, 271.7 442.2, 272 443.3 C 272.3 442.2, 273.1 441.4, 274.6 441.4 C 277 441.4, 279 443.1, 279 445.7 C 279 448.4, 277 450.9, 272 455 Z" fill="#794230"/>
  <path d="M 288 455 C 283 450.9, 281 448.4, 281 445.7 C 281 443.1, 283 441.4, 285.4 441.4 C 286.9 441.4, 287.7 442.2, 288 443.3 C 288.3 442.2, 289.1 441.4, 290.6 441.4 C 293 441.4, 295 443.1, 295 445.7 C 295 448.4, 293 450.9, 288 455 Z" fill="#794230"/>
  <path d="M 320 455 C 315 450.9, 313 448.4, 313 445.7 C 313 443.1, 315 441.4, 317.4 441.4 C 318.9 441.4, 319.7 442.2, 320 443.3 C 320.3 442.2, 321.1 441.4, 322.6 441.4 C 325 441.4, 327 443.1, 327 445.7 C 327 448.4, 325 450.9, 320 455 Z" fill="#794230"/>
  <path d="M 336 455 C 331 450.9, 329 448.4, 329 445.7 C 329 443.1, 331 441.4, 333.4 441.4 C 334.9 441.4, 335.7 442.2, 336 443.3 C 336.3 442.2, 337.1 441.4, 338.6 441.4 C 341 441.4, 343 443.1, 343 445.7 C 343 448.4, 341 450.9, 336 455 Z" fill="#794230"/>
  <path d="M 368 455 C 363 450.9, 361 448.4, 361 445.7 C 361 443.1, 363 441.4, 365.4 441.4 C 366.9 441.4, 367.7 442.2, 368 443.3 C 368.3 442.2, 369.1 441.4, 370.6 441.4 C 373 441.4, 375 443.1, 375 445.7 C 375 448.4, 373 450.9, 368 455 Z" fill="#794230"/>
  <path d="M 384 455 C 379 450.9, 377 448.4, 377 445.7 C 377 443.1, 379 441.4, 381.4 441.4 C 382.9 441.4, 383.7 442.2, 384 443.3 C 384.3 442.2, 385.1 441.4, 386.6 441.4 C 389 441.4, 391 443.1, 391 445.7 C 391 448.4, 389 450.9, 384 455 Z" fill="#794230"/>
  <path d="M 400 455 C 395 450.9, 393 448.4, 393 445.7 C 393 443.1, 395 441.4, 397.4 441.4 C 398.9 441.4, 399.7 442.2, 400 443.3 C 400.3 442.2, 401.1 441.4, 402.6 441.4 C 405 441.4, 407 443.1, 407 445.7 C 407 448.4, 405 450.9, 400 455 Z" fill="#794230"/>
  <path d="M 416 455 C 411 450.9, 409 448.4, 409 445.7 C 409 443.1, 411 441.4, 413.4 441.4 C 414.9 441.4, 415.7 442.2, 416 443.3 C 416.3 442.2, 417.1 441.4, 418.6 441.4 C 421 441.4, 423 443.1, 423 445.7 C 423 448.4, 421 450.9, 416 455 Z" fill="#794230"/>
  <path d="M 432 455 C 427 450.9, 425 448.4, 425 445.7 C 425 443.1, 427 441.4, 429.4 441.4 C 430.9 441.4, 431.7 442.2, 432 443.3 C 432.3 442.2, 433.1 441.4, 434.6 441.4 C 437 441.4, 439 443.1, 439 445.7 C 439 448.4, 437 450.9, 432 455 Z" fill="#794230"/>
  <path d="M 448 455 C 443 450.9, 441 448.4, 441 445.7 C 441 443.1, 443 441.4, 445.4 441.4 C 446.9 441.4, 447.7 442.2, 448 443.3 C 448.3 442.2, 449.1 441.4, 450.6 441.4 C 453 441.4, 455 443.1, 455 445.7 C 455 448.4, 453 450.9, 448 455 Z" fill="#794230"/>
  <path d="M 464 455 C 459 450.9, 457 448.4, 457 445.7 C 457 443.1, 459 441.4, 461.4 441.4 C 462.9 441.4, 463.7 442.2, 464 443.3 C 464.3 442.2, 465.1 441.4, 466.6 441.4 C 469 441.4, 471 443.1, 471 445.7 C 471 448.4, 469 450.9, 464 455 Z" fill="#794230"/>
  <path d="M 160 471 C 155 466.9, 153 464.4, 153 461.7 C 153 459.1, 155 457.4, 157.4 457.4 C 158.9 457.4, 159.7 458.2, 160 459.3 C 160.3 458.2, 161.1 457.4, 162.6 457.4 C 165 457.4, 167 459.1, 167 461.7 C 167 464.4, 165 466.9, 160 471 Z" fill="#794230"/>
  <path d="M 176 471 C 171 466.9, 169 464.4, 169 461.7 C 169 459.1, 171 457.4, 173.4 457.4 C 174.9 457.4, 175.7 458.2, 176 459.3 C 176.3 458.2, 177.1 457.4, 178.6 457.4 C 181 457.4, 183 459.1, 183 461.7 C 183 464.4, 181 466.9, 176 471 Z" fill="#794230"/>
  <path d="M 192 471 C 187 466.9, 185 464.4, 185 461.7 C 185 459.1, 187 457.4, 189.4 457.4 C 190.9 457.4, 191.7 458.2, 192 459.3 C 192.3 458.2, 193.1 457.4, 194.6 457.4 C 197 457.4, 199 459.1, 199 461.7 C 199 464.4, 197 466.9, 192 471 Z" fill="#794230"/>
  <path d="M 208 471 C 203 466.9, 201 464.4, 201 461.7 C 201 459.1, 203 457.4, 205.4 457.4 C 206.9 457.4, 207.7 458.2, 208 459.3 C 208.3 458.2, 209.1 457.4, 210.6 457.4 C 213 457.4, 215 459.1, 215 461.7 C 215 464.4, 213 466.9, 208 471 Z" fill="#794230"/>
  <path d="M 256 471 C 251 466.9, 249 464.4, 249 461.7 C 249 459.1, 251 457.4, 253.4 457.4 C 254.9 457.4, 255.7 458.2, 256 459.3 C 256.3 458.2, 257.1 457.4, 258.6 457.4 C 261 457.4, 263 459.1, 263 461.7 C 263 464.4, 261 466.9, 256 471 Z" fill="#794230"/>
  <path d="M 272 471 C 267 466.9, 265 464.4, 265 461.7 C 265 459.1, 267 457.4, 269.4 457.4 C 270.9 457.4, 271.7 458.2, 272 459.3 C 272.3 458.2, 273.1 457.4, 274.6 457.4 C 277 457.4, 279 459.1, 279 461.7 C 279 464.4, 277 466.9, 272 471 Z" fill="#794230"/>
  <path d="M 336 471 C 331 466.9, 329 464.4, 329 461.7 C 329 459.1, 331 457.4, 333.4 457.4 C 334.9 457.4, 335.7 458.2, 336 459.3 C 336.3 458.2, 337.1 457.4, 338.6 457.4 C 341 457.4, 343 459.1, 343 461.7 C 343 464.4, 341 466.9, 336 471 Z" fill="#794230"/>
  <path d="M 352 471 C 347 466.9, 345 464.4, 345 461.7 C 345 459.1, 347 457.4, 349.4 457.4 C 350.9 457.4, 351.7 458.2, 352 459.3 C 352.3 458.2, 353.1 457.4, 354.6 457.4 C 357 457.4, 359 459.1, 359 461.7 C 359 464.4, 357 466.9, 352 471 Z" fill="#794230"/>
  <path d="M 368 471 C 363 466.9, 361 464.4, 361 461.7 C 361 459.1, 363 457.4, 365.4 457.4 C 366.9 457.4, 367.7 458.2, 368 459.3 C 368.3 458.2, 369.1 457.4, 370.6 457.4 C 373 457.4, 375 459.1, 375 461.7 C 375 464.4, 373 466.9, 368 471 Z" fill="#794230"/>
  <path d="M 384 471 C 379 466.9, 377 464.4, 377 461.7 C 377 459.1, 379 457.4, 381.4 457.4 C 382.9 457.4, 383.7 458.2, 384 459.3 C 384.3 458.2, 385.1 457.4, 386.6 457.4 C 389 457.4, 391 459.1, 391 461.7 C 391 464.4, 389 466.9, 384 471 Z" fill="#794230"/>
  <path d="M 432 471 C 427 466.9, 425 464.4, 425 461.7 C 425 459.1, 427 457.4, 429.4 457.4 C 430.9 457.4, 431.7 458.2, 432 459.3 C 432.3 458.2, 433.1 457.4, 434.6 457.4 C 437 457.4, 439 459.1, 439 461.7 C 439 464.4, 437 466.9, 432 471 Z" fill="#794230"/>
  <path d="M 464 471 C 459 466.9, 457 464.4, 457 461.7 C 457 459.1, 459 457.4, 461.4 457.4 C 462.9 457.4, 463.7 458.2, 464 459.3 C 464.3 458.2, 465.1 457.4, 466.6 457.4 C 469 457.4, 471 459.1, 471 461.7 C 471 464.4, 469 466.9, 464 471 Z" fill="#794230"/>
  <path d="M 160 487 C 155 482.9, 153 480.4, 153 477.7 C 153 475.1, 155 473.4, 157.4 473.4 C 158.9 473.4, 159.7 474.2, 160 475.3 C 160.3 474.2, 161.1 473.4, 162.6 473.4 C 165 473.4, 167 475.1, 167 477.7 C 167 480.4, 165 482.9, 160 487 Z" fill="#794230"/>
  <path d="M 192 487 C 187 482.9, 185 480.4, 185 477.7 C 185 475.1, 187 473.4, 189.4 473.4 C 190.9 473.4, 191.7 474.2, 192 475.3 C 192.3 474.2, 193.1 473.4, 194.6 473.4 C 197 473.4, 199 475.1, 199 477.7 C 199 480.4, 197 482.9, 192 487 Z" fill="#794230"/>
  <path d="M 208 487 C 203 482.9, 201 480.4, 201 477.7 C 201 475.1, 203 473.4, 205.4 473.4 C 206.9 473.4, 207.7 474.2, 208 475.3 C 208.3 474.2, 209.1 473.4, 210.6 473.4 C 213 473.4, 215 475.1, 215 477.7 C 215 480.4, 213 482.9, 208 487 Z" fill="#794230"/>
  <path d="M 224 487 C 219 482.9, 217 480.4, 217 477.7 C 217 475.1, 219 473.4, 221.4 473.4 C 222.9 473.4, 223.7 474.2, 224 475.3 C 224.3 474.2, 225.1 473.4, 226.6 473.4 C 229 473.4, 231 475.1, 231 477.7 C 231 480.4, 229 482.9, 224 487 Z" fill="#794230"/>
  <path d="M 240 487 C 235 482.9, 233 480.4, 233 477.7 C 233 475.1, 235 473.4, 237.4 473.4 C 238.9 473.4, 239.7 474.2, 240 475.3 C 240.3 474.2, 241.1 473.4, 242.6 473.4 C 245 473.4, 247 475.1, 247 477.7 C 247 480.4, 245 482.9, 240 487 Z" fill="#794230"/>
  <path d="M 272 487 C 267 482.9, 265 480.4, 265 477.7 C 265 475.1, 267 473.4, 269.4 473.4 C 270.9 473.4, 271.7 474.2, 272 475.3 C 272.3 474.2, 273.1 473.4, 274.6 473.4 C 277 473.4, 279 475.1, 279 477.7 C 279 480.4, 277 482.9, 272 487 Z" fill="#794230"/>
  <path d="M 304 487 C 299 482.9, 297 480.4, 297 477.7 C 297 475.1, 299 473.4, 301.4 473.4 C 302.9 473.4, 303.7 474.2, 304 475.3 C 304.3 474.2, 305.1 473.4, 306.6 473.4 C 309 473.4, 311 475.1, 311 477.7 C 311 480.4, 309 482.9, 304 487 Z" fill="#794230"/>
  <path d="M 336 487 C 331 482.9, 329 480.4, 329 477.7 C 329 475.1, 331 473.4, 333.4 473.4 C 334.9 473.4, 335.7 474.2, 336 475.3 C 336.3 474.2, 337.1 473.4, 338.6 473.4 C 341 473.4, 343 475.1, 343 477.7 C 343 480.4, 341 482.9, 336 487 Z" fill="#794230"/>
  <path d="M 400 487 C 395 482.9, 393 480.4, 393 477.7 C 393 475.1, 395 473.4, 397.4 473.4 C 398.9 473.4, 399.7 474.2, 400 475.3 C 400.3 474.2, 401.1 473.4, 402.6 473.4 C 405 473.4, 407 475.1, 407 477.7 C 407 480.4, 405 482.9, 400 487 Z" fill="#794230"/>
  <path d="M 448 487 C 443 482.9, 441 480.4, 441 477.7 C 441 475.1, 443 473.4, 445.4 473.4 C 446.9 473.4, 447.7 474.2, 448 475.3 C 448.3 474.2, 449.1 473.4, 450.6 473.4 C 453 473.4, 455 475.1, 455 477.7 C 455 480.4, 453 482.9, 448 487 Z" fill="#794230"/>
</svg>
